<mxfile host="www.draw.io" modified="2019-11-07T00:59:31.523Z" agent="Mozilla/5.0 (Macintosh; Intel Mac OS X 10_14_6) AppleWebKit/537.36 (KHTML, like Gecko) Chrome/78.0.3904.87 Safari/537.36" etag="7XmVnPG15xrjyerfDq1P" version="12.1.9" type="github" pages="3">
  <diagram id="IMd-8JxzNXGw8Z8X-Ukh" name="第 1 页">
    <mxGraphModel dx="1186" dy="692" grid="1" gridSize="10" guides="1" tooltips="1" connect="1" arrows="1" fold="1" page="1" pageScale="1" pageWidth="827" pageHeight="1169" math="0" shadow="0">
      <root>
        <mxCell id="0"/>
        <mxCell id="1" parent="0"/>
        <mxCell id="MQp3sE08TOy6ixfFz7SZ-20" style="edgeStyle=orthogonalEdgeStyle;rounded=0;orthogonalLoop=1;jettySize=auto;html=1;exitX=0.5;exitY=0;exitDx=0;exitDy=0;entryX=0.621;entryY=1;entryDx=0;entryDy=0;entryPerimeter=0;" edge="1" parent="1" source="MQp3sE08TOy6ixfFz7SZ-12" target="MQp3sE08TOy6ixfFz7SZ-1">
          <mxGeometry relative="1" as="geometry"/>
        </mxCell>
        <mxCell id="MQp3sE08TOy6ixfFz7SZ-12" value="" style="rounded=1;whiteSpace=wrap;html=1;" vertex="1" parent="1">
          <mxGeometry x="407.5" y="252" width="325" height="258" as="geometry"/>
        </mxCell>
        <mxCell id="MQp3sE08TOy6ixfFz7SZ-19" style="edgeStyle=orthogonalEdgeStyle;rounded=0;orthogonalLoop=1;jettySize=auto;html=1;exitX=0.5;exitY=0;exitDx=0;exitDy=0;entryX=0.25;entryY=1;entryDx=0;entryDy=0;" edge="1" parent="1" source="MQp3sE08TOy6ixfFz7SZ-8" target="MQp3sE08TOy6ixfFz7SZ-1">
          <mxGeometry relative="1" as="geometry"/>
        </mxCell>
        <mxCell id="MQp3sE08TOy6ixfFz7SZ-8" value="" style="rounded=1;whiteSpace=wrap;html=1;" vertex="1" parent="1">
          <mxGeometry x="76" y="323" width="304" height="150" as="geometry"/>
        </mxCell>
        <mxCell id="MQp3sE08TOy6ixfFz7SZ-1" value="Zabbix-Server" style="rounded=1;whiteSpace=wrap;html=1;fillColor=#f8cecc;strokeColor=#b85450;" vertex="1" parent="1">
          <mxGeometry x="287.5" y="100" width="120" height="60" as="geometry"/>
        </mxCell>
        <mxCell id="MQp3sE08TOy6ixfFz7SZ-2" value="agent" style="rounded=1;whiteSpace=wrap;html=1;" vertex="1" parent="1">
          <mxGeometry x="138" y="381" width="90" height="40" as="geometry"/>
        </mxCell>
        <mxCell id="MQp3sE08TOy6ixfFz7SZ-3" value="agent" style="rounded=1;whiteSpace=wrap;html=1;" vertex="1" parent="1">
          <mxGeometry x="260" y="401" width="90" height="40" as="geometry"/>
        </mxCell>
        <mxCell id="MQp3sE08TOy6ixfFz7SZ-4" value="agent" style="rounded=1;whiteSpace=wrap;html=1;" vertex="1" parent="1">
          <mxGeometry x="450" y="370" width="90" height="40" as="geometry"/>
        </mxCell>
        <mxCell id="MQp3sE08TOy6ixfFz7SZ-5" value="agent" style="rounded=1;whiteSpace=wrap;html=1;" vertex="1" parent="1">
          <mxGeometry x="570" y="370" width="90" height="40" as="geometry"/>
        </mxCell>
        <mxCell id="MQp3sE08TOy6ixfFz7SZ-6" value="zabbix-proxy" style="rounded=1;whiteSpace=wrap;html=1;fillColor=#fff2cc;strokeColor=#d6b656;" vertex="1" parent="1">
          <mxGeometry x="185" y="330" width="110" height="40" as="geometry"/>
        </mxCell>
        <mxCell id="MQp3sE08TOy6ixfFz7SZ-7" value="50台" style="text;html=1;resizable=0;points=[];autosize=1;align=left;verticalAlign=top;spacingTop=-4;" vertex="1" parent="1">
          <mxGeometry x="156" y="432" width="40" height="20" as="geometry"/>
        </mxCell>
        <mxCell id="MQp3sE08TOy6ixfFz7SZ-11" value="深圳IDC机房" style="text;html=1;resizable=0;points=[];autosize=1;align=left;verticalAlign=top;spacingTop=-4;" vertex="1" parent="1">
          <mxGeometry x="80" y="303" width="80" height="20" as="geometry"/>
        </mxCell>
        <mxCell id="MQp3sE08TOy6ixfFz7SZ-13" value="zabbix-proxy" style="rounded=1;whiteSpace=wrap;html=1;fillColor=#fff2cc;strokeColor=#d6b656;" vertex="1" parent="1">
          <mxGeometry x="505" y="273" width="110" height="40" as="geometry"/>
        </mxCell>
        <mxCell id="MQp3sE08TOy6ixfFz7SZ-15" value="北京IDC" style="text;html=1;resizable=0;points=[];autosize=1;align=left;verticalAlign=top;spacingTop=-4;" vertex="1" parent="1">
          <mxGeometry x="635" y="303" width="60" height="20" as="geometry"/>
        </mxCell>
        <mxCell id="MQp3sE08TOy6ixfFz7SZ-22" value="监控、报警" style="text;html=1;strokeColor=#b85450;fillColor=#f8cecc;align=center;verticalAlign=middle;whiteSpace=wrap;rounded=0;" vertex="1" parent="1">
          <mxGeometry x="425" y="100" width="100" height="20" as="geometry"/>
        </mxCell>
        <mxCell id="MQp3sE08TOy6ixfFz7SZ-23" value="数据展示" style="text;html=1;strokeColor=#b85450;fillColor=#f8cecc;align=center;verticalAlign=middle;whiteSpace=wrap;rounded=0;" vertex="1" parent="1">
          <mxGeometry x="440" y="130" width="70" height="20" as="geometry"/>
        </mxCell>
        <mxCell id="MQp3sE08TOy6ixfFz7SZ-24" value="SNMP" style="text;html=1;resizable=0;points=[];autosize=1;align=left;verticalAlign=top;spacingTop=-4;" vertex="1" parent="1">
          <mxGeometry x="84" y="120" width="50" height="20" as="geometry"/>
        </mxCell>
        <mxCell id="MQp3sE08TOy6ixfFz7SZ-25" value="交换机、路由器类型" style="text;html=1;resizable=0;points=[];autosize=1;align=left;verticalAlign=top;spacingTop=-4;" vertex="1" parent="1">
          <mxGeometry x="84" y="87" width="120" height="20" as="geometry"/>
        </mxCell>
      </root>
    </mxGraphModel>
  </diagram>
  <diagram id="unsXVhdj8SFr5bJ6h39W" name="第 2 页">
    <mxGraphModel dx="678" dy="395" grid="1" gridSize="10" guides="1" tooltips="1" connect="1" arrows="1" fold="1" page="1" pageScale="1" pageWidth="827" pageHeight="1169" math="0" shadow="0">
      <root>
        <mxCell id="3p5SDK0Hz52g59HzeCmf-0"/>
        <mxCell id="3p5SDK0Hz52g59HzeCmf-1" parent="3p5SDK0Hz52g59HzeCmf-0"/>
        <mxCell id="3p5SDK0Hz52g59HzeCmf-2" value="zabbix-agent" style="rounded=1;whiteSpace=wrap;html=1;" vertex="1" parent="3p5SDK0Hz52g59HzeCmf-1">
          <mxGeometry x="220" y="140" width="120" height="60" as="geometry"/>
        </mxCell>
        <mxCell id="3p5SDK0Hz52g59HzeCmf-3" value="1. 创建自定义监控项名称及values&amp;nbsp; &amp;nbsp;" style="text;html=1;resizable=0;points=[];autosize=1;align=left;verticalAlign=top;spacingTop=-4;" vertex="1" parent="3p5SDK0Hz52g59HzeCmf-1">
          <mxGeometry x="380" y="120" width="210" height="20" as="geometry"/>
        </mxCell>
        <mxCell id="3p5SDK0Hz52g59HzeCmf-5" value="2.获取values" style="text;html=1;resizable=0;points=[];autosize=1;align=left;verticalAlign=top;spacingTop=-4;" vertex="1" parent="3p5SDK0Hz52g59HzeCmf-1">
          <mxGeometry x="380" y="150" width="80" height="20" as="geometry"/>
        </mxCell>
        <mxCell id="3p5SDK0Hz52g59HzeCmf-6" value="zabbix-server" style="rounded=1;whiteSpace=wrap;html=1;" vertex="1" parent="3p5SDK0Hz52g59HzeCmf-1">
          <mxGeometry x="220" y="270" width="120" height="60" as="geometry"/>
        </mxCell>
        <mxCell id="3p5SDK0Hz52g59HzeCmf-7" value="检测 agent 自定义监控项 是否有values" style="text;html=1;resizable=0;points=[];autosize=1;align=left;verticalAlign=top;spacingTop=-4;" vertex="1" parent="3p5SDK0Hz52g59HzeCmf-1">
          <mxGeometry x="379" y="280" width="220" height="20" as="geometry"/>
        </mxCell>
        <mxCell id="3p5SDK0Hz52g59HzeCmf-8" value="/etc/zabbix/zabbix_agentd.d/uwsgi.conf&lt;br&gt;&lt;br&gt;UserParameter=Uwsgi.Status,/usr/bin/ps -ef | grep uwsgi | grep -v grep | awk &#39;{print $1}&#39; | uniq | wc -l" style="text;html=1;resizable=0;points=[];autosize=1;align=left;verticalAlign=top;spacingTop=-4;" vertex="1" parent="3p5SDK0Hz52g59HzeCmf-1">
          <mxGeometry x="379" y="190" width="550" height="40" as="geometry"/>
        </mxCell>
        <mxCell id="3p5SDK0Hz52g59HzeCmf-10" value="&lt;div&gt;[root@zabbix-server plugins]# zabbix_get -s 172.16.249.142 -p 10050 -k &quot;Uwsgi.Status&quot;&lt;/div&gt;&lt;div&gt;1&lt;/div&gt;" style="text;html=1;resizable=0;points=[];autosize=1;align=left;verticalAlign=top;spacingTop=-4;" vertex="1" parent="3p5SDK0Hz52g59HzeCmf-1">
          <mxGeometry x="375" y="315" width="480" height="30" as="geometry"/>
        </mxCell>
        <mxCell id="3p5SDK0Hz52g59HzeCmf-11" value="添加 模块 》》 监控项 》》触发器&amp;nbsp;&amp;nbsp;" style="text;html=1;resizable=0;points=[];autosize=1;align=left;verticalAlign=top;spacingTop=-4;" vertex="1" parent="3p5SDK0Hz52g59HzeCmf-1">
          <mxGeometry x="379" y="353" width="200" height="20" as="geometry"/>
        </mxCell>
        <mxCell id="3p5SDK0Hz52g59HzeCmf-12" value="主机服务器 》》 添加模板" style="text;html=1;resizable=0;points=[];autosize=1;align=left;verticalAlign=top;spacingTop=-4;" vertex="1" parent="3p5SDK0Hz52g59HzeCmf-1">
          <mxGeometry x="380" y="400" width="150" height="20" as="geometry"/>
        </mxCell>
        <mxCell id="3p5SDK0Hz52g59HzeCmf-13" value="" style="shape=image;verticalLabelPosition=bottom;labelBackgroundColor=#ffffff;verticalAlign=top;aspect=fixed;imageAspect=0;image=data:image/png,iVBORw0KGgoAAAANSUhEUgAAAggAAADrCAYAAAAMs25mAAAgAElEQVR4XuxdBXRWV9bdcXd3SIIEd3eXUqGUChQK9VK3aTvVmbbz16bTTqfuDlWKuxZ3C4GQhLi767/2SV8IEpIvSAk9d62sJN9778q+992zzz7nfc9s7NixNYmJidCiCCgCioAioAgoAoqAgYCZEgRdDIqAIqAIKAKKgCJwKgJKEHRNKAKKgCKgCCgCisBpCChB0EWhCCgCioAioAgoAkoQdA0oAoqAIqAIKAKKQOMINKgg3FlT1PjVLfyMD8wcWvgItPuKgCKgCCgCisCFQaBBgvBBde6FafESqvVOc9dLqDfaFUVAEVAEFAFF4NJBoFGC4Np/MKz9/BvscVVBPrJWLDntuPfV16GmuhoZv/102jG3ISNh5elZ93nx0SgUHdyHmuoaAPypLd6Tr6/7uyo/H/m7d6AiOwuoqa773KFDJ9j4BSBn3SrUVFbCa9JkOZax4OeT2rUJCIJL3wHIWbsKFdmZckwJwqWzELUnioAioAgoApcWAo0ShLavvg3XAUNO67WZuQUsXd1QsHcn9t141UnHHbt0R9fvF8hne6dOROGBvScd7/LtfDh27ILK/Dz53MLBATAzQ/bqFTjyxP2oqaiQzwceSkRlQT5qKsphZm4OC2dXlCUlIPqZx5C3bZOcE/LIU/CaeA12TxqOqqJCeIyZgHb/fg9HHr0XmUtr+2Dl6YVuPy5Fwf7diHr47rr6m0sQunfvjri4OLi5uSE/Px+ZmbWEw8zMDNbW1igrKztpvPy8a9eu2LNnj8mz7+XlhaysLFhYWGDIkCFYu3YtqqqqzlhPjx49kJqaiuTk5JOO+/n5ISUl5axtOzg4wNzcvO6c6upqFBU1P8zk4+MD1kFsLC0t6+qtrKxETc0JEsgDnTp1woEDB0zGpv4F7DtxNsqZMHJychIcTy2cQ/bV1OLq6oqAgAAcPHhQLh0wYAD279+PgoKC06qysrI6CV/2j1hoUQQUAUXgUkWgUYJwpo6bWVig/dsfw7FTV+y7YRLKUpJOOi34vkfhP/N2VJeUIGPJAsS+/MxJx0kQqisrcWDGtbWfm5kh8LZ7EPLgE4i8dzay16yQj0kQIufMqvvf2tcf3X5YjMLIAzh0x3Q551SCYGZtjU4ffyeqx76pE1GRk43wF1+H68Ch2DVhiPTJKKYShH79+iEoKAienp5YsWIFrrjiCjFsxcXFYghzc3Mxe/ZsxMTEIDw8HI6OjkhISEBhYSE6dOiAJ5980uR1cMstt4DGOz4+XggCyUdSUhLc3d3xn//8BzR6gwcPFuMYGhoKOzs7MVg0wseOHcOuXbtw/fXXw8PDA5s3b8ZVV50gczRkb7zxhvTptttuk3aMQsP39NNPo7y83OQ+sy/Dhg0TgkFyMHHiROTk5Aih2rJlCxYsWIArr7wSJD8sJE9799aSSBrrH374waQ2OeZnnnkGJG7EIzIyEhkZGdKev78/Pv74Y5mv3377DbGxsdLejh07ZI5IqL755hs5bkrhGG+88UZ07twZ6enpUs/IkSOFnJGMrVmzBiRsPM6+BAYGynldunRBdHS09OOzzz4zpUk9VxFQBBSBi4pAswhC0P2PIvjOB3D4kXuQ9YeXXr/XvVZtQ9aKxTCzsYZrn4HYNXHo2QkCABv/APRYsBZxr7+IlO++OCNB4IedvvwJVs4u2H31qDMSBKOhvpv2I3/3TiS8/x9RM6KffRxpP313Uj+aQxBCQkLEOG/btg3Tpk3Dd999J8aYXj5VBRqknj174ujRo2KISCh4DY1xcwgCPeNrrrkGFRUV+P333/Haa6/h9ddfx+23345HH320Tk148cUX8cUXX+D48eNCHHiMxIWFxqxjx444fPjwSV7rnXfeiQ8++EDOYX00ZkbhNY888kizCALrGjVqlOBCUsKf3bt3Y8yYMUIaqIKQjFDZYLnhhhvw/fffy9/Z2dnyY2q57rrrMGnSJFC5WLx4Md566626uonDsmXL8Oabb8Lb21tIC38bSgsx3bp1q0lNktxwnO+8844QsLZt22LevHlo3bq1EBQqCSyPPfaYkLDnnntO1gzPXblypSgZShBMglxPVgQUgYuMgMkEwWvi1WjzytuIe+2fSP7io9O66z5qHNq//i62j+gNcxsb9Fy+GZF334KcjWvqzqWCUFNViQMzr5PPbIJCEHDr3fC55noJFZTExZxGEMytbUQFaPvKW0j7ZS5i//X8WQmC37RZaPXY0xJOyFqzHEcfv/+0vp4LQTBUBCoDNLybNm0S40AjSCPNn3MlCDRkf//738XrpudJT/nnn3/GiBEj4OzsLAaGxIHeP41tSUmJqBVhYWGIiooSA3jo0CExnDRa3377rfxtKAW+vr54++230bdvX1EYGB4xCtWSJUuWiLdLFcSUQjmdCgINM4kGpXR60cSMYRaqICRZ7CcLlZiFCxfK3/TETW2PbdA4s6/t27cX5eCOO+4QhWLo0KGi8lAxmDJliqg6Li4uoraQtDC0QPL20UcfmUSGSNxIQkgE2D7HzLlgIZYkacHBwZg5c6YoF+PHjxdVgYrQokWLZA6UIJiyqvRcRUARuNgImEQQHDp2RqdP5yJv6yYceXQOqstPjrXD3BydPpuLmqpqHJxdm2DY8aNvYeXhgb3XTRRSwEKC4NS1R10smhtsdXk54t54CSnffAb8EaNmiIGJjkZhHkLhwX04/NBdKEuMPytBYNii95odsPb2wb5pV6Ng945zJgg0aDQ6rVq1EqNN2Z+eIA3cL7/8IoZi3LhxsLe3F9JAj/xcFQQacdZPY8P2WEgcGNKgUaXHfN9994mHemqh8SNpYIyfHj2N1uOPPy4ePAtDIjSqNOY0rCQTDAds375djDiVEMrzRrtNXZw00OwzvWpeSymffWadDCWQeLDPxIukip+zn1QObGxsxNNnSKKpxSAI9NA5Vhp/hlaMOkiq9u3bJ0b6gQceQFpaWl3VxPfaa68VYmVKMUIMY8eOxZEjR+qUHI7n66+/FrWAOQlUf/g32yERYTiI/zMMYWooxZT+6bmKgCKgCJwrAk0mCFQDeixci4q8XOydMv6M7Vo4OaPnst+R9Mm7SPqsVrr2ve4mtHrsWey+aqQkGBoEgYTgwC21CgLzBoLueRBBt9+HqEfuqUsuPDUHwT6sjYQYSmKOYv/NtfkLp+YgGB3zGDUe7d/6UP5N+vwDxL324jkTBFbAeHX9hDjK6Py56aabpP45c+bA1tZWvFN6kiQT5xJioLfLut977z3cfffdYlRocEk8jL9nzZolSkNDxSAI9HjpWRthBSOpj/1/4oknJGeBCsiGDRvE0H744YdCIEwtVDQo4TOuT8+a9TMez9wJGm6DWDEswPOYk/Dggw/ixx9/RP/+/fHqq6+a1KRBEIgH22S4gqoBQyQsnC+SJRIEEjiSO6PcfPPNmDp1qskEgddzbFQeOL76SY4ci5GoSEJGwsPjJHMMBTE0ceo1Jg1YT1YEFAFF4CIg0CSCwKcMOn46F7aBwfLEQml87Bm75nPdNIS/8IqECPhEAYuFgyPsWoUi5sWnkfLt52ckCLKJ29qi+/xVKI6OQuSc2XLeqQSBn3mMmYj2b76PfdOvEVWgIYJAMlOakiQ5EqHPvIzDD9wuj0LWL6aGGHjtCy+8INJynz59RCamN8xkvqeeekq8ZOYZ0Oum0WaYgQaRXiM9y+bkIJAgMBmORu/ll1+WH+Y5UFGgQWU/mF9wNrmaxp7SNlUNKh4GQaDBLC0tFembf9M48zj7TbXk+eefF8++OcVIUqQRZYiBfWSdxIoePsdE5YDkgAl7VC44lpdeeslkY20QhJ07d0pXWRe9dIMg0CizXY6RONQnPVRJGHowVUGoTxAYvjDCCwxhcDxULdgPhnRIFkmKqCIwkZEhB4ZRmJuhRRFQBBSBSxWBJhGE1k++AL8bZ+LgHdORt2XjGcdibmuH3mu2oTT+uHxfQf3i1L0XrD08sXP8EHlkUZ5iqKcgCEGwsRGCUJqciIOzb2iQILgPH4OI/32Kw/ffjqyVS05/isHCAmH/eA1ug4eL0lGenooOH34N28AQ7LlmNKrLSuu6ZipB4OZOyZgbO7P8afwoLw8fPly8eRpW5grwETYaRL5Gm8aRyYtMTnvooYdMXge9evWSeD09cHr4jOPTCPFJhdWrV0uMm14zn5xoqPTu3RsTJkyQfAOqEDRgLMyfYGIjn2xgkiXHRWJDAsFH+CZPnoy5c+ea/AgiQwzEieEEhgyYwU+SwicUiAnDMXw6wlBbSKyYKDhjxgzJrfj000/P+KhgQ+MzCALDCCyU/Tdu3Cjj4VMNVHCYo0Ai0K1bt5MIwsCBA4XwrVq1SvpnSjEUBCouBkGgSsDQBkkiQ0ycex4jUeC8cQ3Nnz9f2mLipBZFQBFQBC5VBBolCP633IHWjz+LmH89j9Q/ni44eTA18gVFLv0GodMn39V59vXPsQsNR48Fa3DorhnI2bCmliBUVuDg7BtrTzMDvK+eirDnXkbS5x/i+Osv1REEEoHstSvlf0sXF3T9cQksXVyxtU+EtHuqgsDvV+jy3W+IfvpRpP/2o1xnG9wKPRevR8q8bxDzjxOPGppKEBqbRBoqGkTK5kbcnkSC6gE9RhIIUwvj2IyZkxzUL8wZoPGhAWQC4PkoNJ70cpllfy7P6HP8JDRUJhhm4Q8JDJ9gIFEwHsMkmWIyZf3vjeC5JCumFoYOli9fLpeNHj0a69atE2LAcRA7Gmdi1VDhI4gNfb9EQ9cwdMGQTH28OHbmqRjfjWDqOPR8RUARUAQuFQTOShD4fQdd5y2CQ/uOJ3ne9TtfWViAXeOHIOThp+A96RrsHDsIFTknb/AMM3T/bTVyt2xA9N8fEYLAL1OqMZIc+eU1NTVI/vozJH30Dirzar/mmSEGKg2orv1iIDNrG5TERCPmn39H3vZaebY+QZD+/rQUpfFx8uRE/SRKn6nTEPbcv3Bw1g11X7J0vgnCpTKp2g9FQBFQBBQBReBcETi7gmBmBseITjC3s2uwnZqqKhTu3yMkgga6YN/uM57L4/wa5aLDh+DQrgMsHB3rziMhKI4+ctp1zj371H1WU1mB0oT42q9arlds/APlGx2LDx8ShYFqBb+5sfqUbzPkY5JUF0hejMcolSCc6/LR6xUBRUARUAQuVwQaDTFcrgPnuJQgXM6zq2NTBBQBRUAROBcEGiQIXWtqv/Tlci57zawu5+Hp2BQBRUARUAQUgWYj0CBBaHaNeqEicIkhwGRC/pxL4uUlNiTtjiKgCCgCFxwBJQgXHGJt4M9GgI+G8lFKPqnQnLc2/tn91/YVAUVAEfgzEFCC8Gegrm1eFAT42Gn9d0zwMUY+QqlKwkWBXxtRBBSBFo6AEoQWPoHa/TMjwJACv7CJ30tRv5Ac8J0PShJ05SgCioAicHYElCDoCrksEWBYof7bKesPkmEGDTdcltOug1IEFIHziIDZ9ddfX8PXAmtRBC4XBPg+CX4N8tkKww3G1yNfLuPWcSgCioAicD4RMJsxY0YNXz2rRRFQBBQBRUARUAQUAQMBJQi6FhQBRUARUAQUAUXgNASUIOiiUAQUAUVAEVAEFAElCLoGFAFFQBFQBBQBRaBxBJqkIPBLZk59LIyJYDU1NdICnzdnMV6Xy2MsPM5j/Lx+Hfybn/FRNOO85n6BDdtiXUxK42+jPdZrtMnP+MP22E5z22IdrPPU5Lb6WLANjtvUVwcbU2Vgwj6yLbZptGeMg8eM8TS3HWPODPxPnWNjHBzb+Xgk0MC+/hj4mdEPYy0ZONSfI2M91T9mXFe/Ph43rjt1vZ3rGBrCu37/jXVg9MHAkE9TcA7rr81T+38u94GBo3G/GTgZa6Ohddv49qBnKAKKwF8ZgUYJAje9GTNm4LPPPjsJp1GjRoHJjT4+PvK8OTfB7777Ts658cYb5f9jx47ByckJUVFR6Nq1K3755Re4urqif//+OHDgACZOnIicnBwxqPPmzWvWPEyYMAEBAQFo166d9MfOzg7Lly/Htm3bcPfdd+Pjjz/GbbfdhvLycmRkZGDPnj2Ij49vVls0Ok888QRefPHFk66/5pprpG0/Pz/54dj/85//NKuNkSNH4tChQzIOjql9+/b44IMPUFxcDC8vL/j7+8s42rRpgw4dOmDHjh2IjIxEYWGhSe3dcsstcHR0REFBAb799ltMnjwZc+fOravjqquuwooVK3Drrbdi2bJl8nl+fj5SU1NNaocnk7zddNNN+OKLLzBixAgcP35c1kbHjh3Rt29fIUJr166V/zk2YkmDPnjwYDH4HDv76u7ujqSkJOzduxe9e/eWfjg7O8sx40mclStXSh3Tp0/Hhg0bUFpaiuHDh+P77783ud9G33v06IGQkBDpJ/vNQtw511dffbX8T6w4N+zfkSO1bya97rrrsGbNGjz55JOyZqZOnSr3UWBgIK644gpZ9yQOfOSyrKxMxmLcQ6Z0lvdnbm6ufOdDq1atcPDgQenbJ598ItUMHDgQ1157LY4ePSptZmZm4scffzSlCT1XEVAE/oIINEgQwsLCMHToUIGEG5+xAdPY89voaBT5OzExUYzxgAED8Ntvv8HX11c2P3o13FCLiorAuhISEvDzzz/jyiuvFMIQHByMkpISbN++Hf369ZNjphQanbFjxyIiIkIMwZgxY7B7924hJCQbw4YNA0nMunXrhJTwHBZ+SQ4NjimFRpobLAs34Li4OPmbJId/33nnnWKUoqOjxdCx3VMJVVPaIxmbNm2abOBt27YV40ijkZaWho0bNwrGDg4OyMvLk7GydO7cWYwVMW1uYX9pBGnYSE44LzRuNCjdunWT9kkMaPx27txpUjPs/5AhQxAaGipGjGTu8OHD2LJli8zFDTfcAI6b9bIfnNf9+/fLfNGw09h5e3vLGjLGTiNKA8h1xjVmEAQSmAULFsiaINkgySIxZNus5/fff5c1a0ph/++77z6p1yg333wznnvuuZPWEcnb9ddfL3PDfvBeeOCBBxATE4NevXrJOuQ5JAILFy5Ep06dBE8SXBI8zjXn/JtvvjGle3Iu+0e82A6xIinmvfHVV1/JZyRhvA+JK4nV/PnzhYRpUQQUAUXgbAicVUEw5G5uYosXL5Z6DBnzoYceEqPIDXfr1q11BIGbPRUEbn78mx77HXfcIUabhoebGY3A559/LgaBxMPe3r5ZBpWbH71MGjV67TQG9PS+/vprMax/+9vf8Morr+Cee+4RL40GikaQhMbUYsjc9ExZP4shJb/66quihJAs0WNsLkGgMabxYV1sj8aFX/gTGxuLpUuXyphIrEjCaGhYaPzYpuG1NmVcLi4uePjhhwV3ytD//Oc/MXr0aPHMacTocdJb5zEattatW4tB4XFTvzPDeFES+0WS9dNPP9Vhx3VARYGGn+pSeHi4KCMcKxUEEguSH3rpJGIkAiREb7zxhhjC2bNny7zzhwoKz920aZPMO8ka1S2eSxLSHM+cHSXm9P6pRBiFuD3++ONi3EnauO5I0Az1YPz48aL6cH3QIJM0UDVh4bxxTqnQUL3hOHbt2iWEmmu3OQTh/vvvF+NPEsUxcz2wv6yX6h7vE5It4wui1q9fL6TEWENNWTN6jiKgCPz1EGiQINDrpiTKwk2HXiTLokWLxHhRkqbR4ObIDYdGhV4TNzoaZBo1Svn0piiB0mui10uvj54dNzAaBm5s9PZMDTFQTp05c6bIqlQN6sfU33zzTTF4NDbcCI3NlxsyPXxjs27qdNNYktiw0EAbIQpu5jSic+bMEQNGLIgP1YzmKAisn1I8vXUaPRIaGmcSMJKrKVOmSBs0njSiRiFR4+dNLcSK4Qv+cC5pnGm8DYNCMsW2PvzwQ/Ts2VMIHUkY+8N+mFK6d+8uHj3bIQEiYSRmHCM9+ttvv11IJz18nkfysm/fPjFyNK4GQSAx4ZqkEWT4hnNLqZ7vWuDnlP6pKlA6p8pDIsF1RuLAcdKAk3AZyktTx0CCcO+99+LXX3+tu2TWrFmiIFC9eOSRR0T94HyQsNA7p7r2/vvvy/l///vfhZxSMaGq9fbbbwueDLPxnuJ9w37xXiLWzSEIJHtUxbguOFaqTbxnqSSQZPEeIRngfULVhhjzvqOqp0URUAQUgYYQaDQHgRcyV4CGzygMCXADopc2btw42YgYjqDh5WZPqXX16tWygdOoUOLkxszNnhsiVQduWPQYjY3d8MqbOlXc7Gi4KY0zjsv/6U3TuFAa5yZMdYGxYXps9Lop67700kvNTlJk30h2vvzyy7puUsqlYaIBonJCb5wkiP8THxqHphZu3PSWqQbQuDG0wc9oPEiwOA5bW1sxpM31iNkXEgQaZhoJzhvj88SOxIfGhIaDSsb//vc/MTDMdaAxoyFsbv4G1xDHQhWA+JEg0rCTTHFcnCcqLySUJIs8ZsTpaeS5rrhu2E8SUR6j8SYe/OE64/8cC+smGWEog4X1MjeBnjzJlCmFddIAGyEqXkvl4JlnnpF7gN45FQXOEQnA888/L4oZsePY6LVznZPAEUPOI+eWuBMLgyBzrZLYMrxkagjs2WeflfZITBjCYV9I5Bhi4FrhZyQkVICIJdt6/fXXJeygRRFQBBQBkwkCPWV6Zyw0wvQuWbip0IDRQ6dhNjZFepw0PDyPHhw3TV7PUMKjjz4qHhWPU+4NCgoSYkCPh54p62eM1xRjagxo0qRJdWEMEhCqEvQiuSHTs6fBo/fG5D8aEibk0Vs1pdBbJcFgocGkYsJCRYIeMb1vGgLG7akAMCeB3iUNmSleGokG+0lFhWEQA0OqE/yfdbIf9BKb42kaY6bRe/DBB6XvJHUkA/TKjXmhga1PEDjnpuYe1G+Lc06jxTkmljRkNOQkkJTAKbNzfFQHODeU6KnAsB/EtUuXLoILjSuNLtcS+8p1Rjw45ySFNMAkBayXZNBQWUjcmkuoiNVjjz120vi5Bp5++mnpC9c4lRCuAZII9p8EmX1l+IRrhUmyXAcktJw3jol5PVSGOFbOO8fIdUvibEoIjGNn4iyJKeeMuLAOEirOKdUz4k/CwPp5D1D1IFHWr5o2ZRfQcxWBvx4CDSoI3HjplZ9auGlzs+NGRIPF/42nGbiZUi6lZ8XNhx4jvWhKxTRG3LT4GWPs3CDpSRmFnh29QFMLvTNukiQt7Av7RXJACZtGgtI2N0cjHMLN2EgybGpbrJOG7NTCemmYaNioWLB91m1I3yQ/pmzC9CiJCWVg4m9I5GyXYzIUF+JuhHyaOoaGziOBYuybXqvxxAkx41MnJFwkigaezWmL80xiSPyNnA0aSuY6GImV9HI5ViZ9si2SCBIX/k2DRnwZsmIfeYxKgiGVc455HdUBoxBHrkHjiQNew3lqTuG8UvrnOjYK26SMX//RSZIV3hc8xlwUrnWuB6ovvJZrm2uIc0g1jdcSZ5I99o3Xc165fkwJ43D+OEe896g+ECviwTAOjxnhQYZouI5JxjgXpuaSNAc7vUYRUARaNgJNCjG07CFq7xUBRUARUAQUAUXAVASUIJiKmJ6vCCgCioAioAj8BRBQgvAXmGQdoiKgCCgCioAiYCoCShCagBgz05tTmEVuxMGbc71eowgoAoqAIqAI/FkIKEFoAvJKEJoAkp6iCCgCioAicFkhYDZw0OCa+Hj9wpSzzWpoWGizJl2eRy827YuFmtWQXqQIKAKKgCKgCJxnBMy6dOteExdX+zWwWhQBRUARUAQUAUVAESACShB0HSgCioAioAgoAorAaQgoQdBFoQgoAoqAIqAIKAJKEHQNKAKKgCKgCCgCikDjCKiC0DhGeoYioAgoAoqAIvCXQ0AJwl9uynXAioAioAgoAopA4wiYRBBCgoORnpHR6Mtk2rVti6gjRxpvXc9QBBQBRUARUAQUgUsSgSYTBL7VbuXyZXj7v+/gp59/PutgDu7fi46du8o510+dioiI9nXnR0Yextx58y5JMLRTioAioAgoAoqAIlCLQJMJAk9+/tlnENIqBLNm39ZkgvDxhx/Iq283b92CMaNGobCwCLfdcafirwgoAoqAIqAIKAKXMAINEgRPTw/8vmH9SV3n++qpJJz6vvrX3/g3Pvr4E7z+2quwtrbGpCsmYsHCRTh46CB69+yFTZs349PPPseTT/wNYaGhShAu4QWhXVMEFAFFQBFQBExWEK6YOBF333UnJk668ozozZw5Ax5ubnj44Yfw0sv/wuGoKEy78UYlCLrWFAFFQBFQBBSBFoaASSGGxggCx/7k3x7HnDn3YOPvm3DLrNl45+23lCC0sEWh3VUEFAFFQBFQBM5KEBwcHNC6Vas6lAYPHozrplyL+x94sO6zqupqHDlyBFVVVbCxscHSJYvQKiQEK1auQlJSEvjkw/oNG/D5F19qiEHXmyKgCCgCioAi0EIQOCtBGDp0CD547926oTAHgTkGxcXFdZ8VFRVh5OixyM3NxS23zMTAAQMwoH8/9B84GA89+ADCwkKxePESfD93nhKEFrIotJuKgCKgCCgCisBZCYK5uTk8PDzqUBo9ehRmzrgZ02+eWfcZn1DIysqCj48P1q1djSnXXY/vv/1aHnPk9fN//RmvvPIaNv7+ex1BePb552Fna4djMTE6A4qAIqAIKAKKgCJwCSJwXnMQ5txzN957/wPs37tbCIKdnR12bN+Kbt17oqKioo4gzF+wADdcPxXTps+4BCHRLikCioAioAgoAopAgwTBwsJCwgn1y/hxY3H7bbdh8pTrTkaupgYlpaV1nxlflDRt2k2YftNNGD/xCjnGxxzbhIdjxapVGDt6NG6ZfavOgCKgCCgCioAioAhcggg0SBDGjBmN5555+qQu29s7wMXFGSkpKSd9Xl1dg8FDh51EEHr16YdlSxZjwcKFeO31N+QYFYZ758xBSUmxfE/Cc8+/cAlCol1SBBQBRUARUAQUgbN8UZInOpGQAywAACAASURBVERENAmhmppqbNj4e925T/ztcfDLkx584H588eWXyMjIlGMuLi4YOmQwv8ARv2/aJLkLWhQBRUARUAQUAUXg0kPApByES6/72iNFQBFQBBQBRUARuBAIKEG4EKhqnYqAIqAIKAKKQAtHQAlCC59A7b4ioAgoAoqAInAhEFCCcCFQ1ToVAUVAEVAEFIEWjoAShBY+gdp9RUARUAQUAUXgQiDQIEHwcHe7EO1pnYqAIqAIKAKKgCLQAhBQBaEFTJJ2URFQBBQBRUARuNgIKEG42Ihre4qAIqAIKAKKQAtAQAlCC5gk7aIioAgoAoqAInCxEVCCcLER1/YUAUVAEVAEFIEWgIAShBYwSdpFRUARUAQUAUXgYiOgBOFiI67tKQKKgCKgCCgCLQCBFkkQ/Hy8YWtr0wLgbbiLqekZKCk58YrsFj0Y7bwioAgoAorAZYdAiyQIIUEBqK6ubtGTUVxSiqzsnBY9Bu28IqAIKAKKwOWLgBKEP2luqR5kng+CYAag5twH4dM9CJ2m94GltcU5VZa7MgG5h9LPqY7GLra0tERlZWVjpzXpuLW1NcrLy5t0bmMnlZSWIj4hqbHTLqvjZubmqGnhZP2ymhAdjCJwHhEwgSCYwSUgDEE9RyJx12pY2trDLagtXAPbYOe3r8LCxg4WllboMvle7J73Zl0XK0uLUVNdJf+HDroKCbtWoaK48KQhtBt9E6LX/oTWAybC3MIKWbH7kRV76IzDdHV1hYuTQ4MKgoWtA6orymBmZobqyorzCNXZqzIzt4C5pTWqyktOOtHcykb6c2ppjCAE9QmDa5DnSZdVV1QhcvEuVFdVw9bFXo4Nvn8cNry9VP6uKK41dD2mD4KZuRksrCxRXVmLfX5yLiIX7WpwEO0md0P4hE7njFfW4lgkbY0553rOVoGtrS1KS89PeMbZ2Rn5+fnnpb9ubm7Yd+DM6/bUBrjOrewd5eOuk+/F3p/fkb+5ZnnPhA65GuYWlrCwtkV1RTlgZobM6L3IjjsE3479YO/qDbfgtji+fQUK0xNQVV6KitLiumZIovhTVlaGmhrTGKRH604oykpB6MBJyIzZD7fg9ji24RfpG9d5/1v/gc0fPw1bZ3f0nPY3bPn4WVRXVQFmgIWlNSysbeDXeQAsrGyEvPL+j9u8GBWlRdI/KysrWJibo7Ss9r6wtLSApaWVEDVTlUHXoLYI6T0aUau+R2leFnw79ENJbjrykmOkr4Hdhwk+3u16wdLGFsn7f0dOfJS0227UjUJuEnatRnCvUbV/71yFkrzMk6aLJLKioqIOR/a/qqrK5L626jselnb2Mq/VfxBcc0tLxG9fgYBuQ2Bp6wDU1AiWMRt+lb02ae96VJSc2C+5r7F9g9Ta2NhIv5pDcrlfWVrboNt1D2LX3DdkzFXlZdIH18Dw2j2ltBileZloPeAKHF37o3xGXP06DUB5cT4qigtkro9tmC9/uwSEw8rWQeYgsMcIVFdVyJ6esHMlSnIzBPOUg1tg6+wBZ98QmJmZ167r+MOgHaiuqoSFlTViNy1CVUU5Bt39Cta+eW/dfFhZWsKimeva0sYOlWUlMLe0kj5VlhXLXMDMHNWVJ5wEjo9rmPfhqcUzrAtK87PlOie/VjC3sEBRZorcl45eQQgfOhk1VX84L2ZmKM5Jw9E1P5yX/eXPqKTJBIGLqc3wKTi+bZkAF9J3HFIObEJZYZ5sBMG9R8MtuB3Ki/JlczFK4q416DblPllU1g4u8nF5UZ783vr5P+Tm9us8EGmHtsHWxRPZxyNh5+aFmA3zT8ODN8eSxYtw5x23N3hztrn2MSRv+hnmljYoSGjaZn0+gLfzDIJX1+GIX/VlXXXWLp5oNe4OHJn78mlNNEYQXALcYe1gg8qyE57y2Beuw0/3fIyaqmrc+OUc7P91B6xsrVFRWg5HTyfkxGUges1BXPH6dCx77gd0ndIPR1buh6WNJXrPHIrfHvmqwaHWJwhXtB2JVq4BdecujV6HseFDZSOKzDiKtXFbMb7NMBzLjkdU1jG09WiNMLcQLIlei1MJAo2mnZ0d8vLyUFRUBHd3dxQUFMiGa2FhIZsd59XBwQGZmbUbs6Ojo8wv26MB528aOtbBciaCwHp53MPDA9nZ2aIwmJuby/8kAE5OTsjKypK62CeeyzbqEwR+npubK9ewbzxunMf62T9+RoNhb28v42BfjX6ZQhC40fhG9EVucjTMzdlWLZHjZpwdF4l2Y6cj7veF6HnjYziw8GPYOrnBwdNfjFnfWc8hPWqHbEj04PNT45B6aBvyk2uJGYnB6FEjkJScAlsbG2zbvsOkJd52xPVI2rMOIf0m1BLtqkpUVpQi8+geuPiHgsczju1FcVYqamqqZdP1CO2MY+t+QrvR0xC7eRGsbOzg06GvGNvs2ENIPbRViIKlhQVGjhyOvLx8lJaV4uDBSIwZNRIJiYmyTrZu2970vpqZocfUh5AauQ1OPiEozk4VQ1ZZXoqja+Yh5/hhhA+7FiW5mSgrykN+cixC+oyRDZt97nPLM8iKOYCs2IMyJnFMYg4gNzG6rg/eXl4YMmQQFi5ajNLSMlmvV0wYj81btiI1La3pfQXQe/oTOLT4c3S/4WEUpCWIQSUp4T5KoxM25Gr5nRa1Ex0nzkbCjhVIPrBZDLZRunTuDC8vD6xavRbhYaEIDgqCtY01du7cjYw/7p+mdip82BRZe5a2dkIELK3tkBa5FTnxR+Di31qqqaqshEfrDvAK74a0w9uRtG8jvNv1gJ2LJ2yc3JC8byPMYIbQwVdjzw9vwdE7AL2mPYHNHz2N1oOuFENKrDOidsHG2Q3tx0yXNU7iWZybARt7ZyERsZsXo93IG2Tvt3PxQsrBzUKM2468AStfua1uSGPHjEJuTq4Qyt83b27qUOW8LtfMwb5f/idz7d4qAls+fR6t+08Ue5V+5ITz5OzXGqGDrpTxnFoCug1DUVYSirPT5F6IGDcDe3/+H/KSjsEjtJP0Nz8lrvY+tLaV8Wz55DmT+nkpnWwSQeh502MyaZxcbnAlOemoqqoUtmvj6IKBd/4L8TtWoqKkSBgYyQHBp9pA98ItqI0wzLgtS2oXX3kJ6K10vfZeHFz4CVwDwpERvQcugeFnJAienh549f/+hRdeeOEkgmBhbQe/flehqrIMzsEdkbjuO/HmuXk6BrYHvfi0HUvg02s8qsqKYWHjgJRNP8PBLxTOrbqIh58Xt6+WObfpJQwwY88qVBTlSj89Ow9F5v518O45FoVJR2s9gIpSOAZGiHJSkpmIstx0BI+4GQWJUSjPS0fWoY3w63c17LyDcezX/5w2540RhLChEfBs44dja0+QnFFPT/6DINRg5k8PYdfXG+vqdfRxQV5SNqKW7sWUD+9AzLpD8OsagswjKTC3tICzn2uTCUKISwCcbBzRzqM1uvpE4KfDSzEoqBfWHd+GPgFdsSf1EHJL83BLtyn4v43v4eH+t+GTXXORUphxEkGg2kNjSgPq5eWFjIwM+Pr6iveVlJQkmy2NAo0QjfLx48flWGhoqBhqw5skOaCB529+fiaCEBISgtTUVLRq1UraIUngecHBwYiLi4OLi4tcz7bodaWn14ZB6hMEnpuYmAg/Pz/k5OTIuSQGrC8oKEj6XFxcDH9/fyEfrMPb21uuYTGFIHi16QYrOyfkJR9DUI8ROLz8a7QZPhXHty9HZUkhek1/AnlJMeIBp0ZuhaWNvXjC9FZaDZiIytIi8cK4xumZRa34FgXpCdKPkOBgeHl5Yueu3bj6yiuwfOVqIWdNLQZBaNV/IqqrK8XQlhcXiJfETbHHDY8icukXcG/VAce3LkP4kGuQk3hEPGFDDRn9xKeI37lK4l8erTpi00d/l+bt7exga2cnv7t27Yxjx2KEZKVnZKCqqlowbmqh99Zz2hOwtneS/YUEIePIbti7+6CsMAcpBzaLCuLZpgcyj54wAPmpx4UEBPYYLt5qTXUNzC3M4ddpIPb8+JYQBqP069sHfr4+WLJshahW3bp2QUhIMLZt24GU1NSmdlXO6zXtb+JQ2bl6ipqScXQv7JzdkRG9F6X5WQgbTIKQI4aYThQdLpa0w7UEj/dTu3Zt4OrigmXLV2LsmNFYv34Dqqqr0blTR5lvUwqNdVnBiTwoSzsH5MRFojAzCb4d+kpVQs4LcuDXsb/0OXr9z3Dxay37dlCvkTL/qKnNBzu+YyWs7BzR66a/YdNHTyG412ghF5nH9gtJLM5NR/ux05FxdA8cPPxQJUqvuXjyJAihAybBt2NfVJaXISNqJ6oqy8WYGwSB+wUx4H05dMgg/PDjz6YMF/1mv4BtX74Irk0aeP7d79Z/YOd3r8G3Qx9Y2dgL2S7MSEbXKfci69h+FGYm4/jWWoXW0SsAHSbOFmKXlxKL8CGTRfku5Vrb/7uoV636jZe1aO3ghLKCXCFDBxd9WqeemdThS+BkkwhC6MArZBOyd/ORDYMGlYuJmxYXP+XQ1IObhTHau3kLC+SNSM/H2a8VHD0DZGGkRe0Q8OgptRkxFX4d+wqD5SLKPLa3QYLQsWNHtGvbFjt3bDuJIDiHdAbMzVGcFoewK+9D2s6lIGkgMciN3gmvriNRmp0E3z6TELfkQ1jaO4mc5xLWA7GL34NPj7EoL8iGe0R/xCx4By6tu8K5dWekbPpVZFOX0O4oiD+IoFEzUZqRAFuPQOTH7Yethz9StsxH6wl3I3nTTwgYPBVR37+IkNGzcHz5pzK9gUNvQOK670+b6qYQhK7XD0B2bEbdtWUFJdj2yWpY2lhh8v9m46d7PpGbxSgVpRWwsrUSBWHxE9+h2w39EbVsnygI/W4f2WSCwPq87N3x0shH8Y91b8PF1hnDW/XDxvgdGBrSF/OjViAuNxHDWvXDLV2n4L/bv8DO5P3SjfoKAo06jSY9d26uNP405PTuS0pKUFhYWEcQePPTiBmqAc8hQaDSwHNpyDlWw/CfGmIwCAINOduJjY0VUsLrEhISpE2SB0qxhkFnf89EEHx8fMT4sz0SGioHPI/9IXEIDAwUssG+NJcgeLftIRuhd9vu4lkfWfU9ek1/Etu/elkIKOXWYxt+Re/pT2H//PdFznfyCZbPuLGTFDDkxz7yHqOBMQyJk5MjBg0cgO07dmLs6NFYunw5srKym7zd+ET0EWJP2f3I6rkiGdMzP7T4M9i7+6L/bf9A9vHDYjii1/4Iz7CusHFyReymhScRBBoTqo2B3Ydicz0vys3VFSNHDMPhqCOiHAUG+CPqaDR8vLywas3aJveTJ3af+iC82nSXa2h4qABw7ynJy8DxbctF3Rz1xMeibDJMQ++OIVH/LoPh0boj/Dr1R/y2FSKpV5QVIS85VsZUv1wxYRxWrl4LTw8PhIWG1jpFcXFITj6hlDal031mPoPSghwhWRlHd8M3ojdKcjJxbON8cG919A5CTVWVkBvus/RA9/7y7kmhUipXgwcNEIIwYfxYLF6yTJoeOKAfft+0pSndqDuHcj/nzCg2zu6wtndGTvxheLftCQtra5BMMXQT0mes7Ovc0znvXuFd0fvmvwvOdMaS929E5JIvRA3udMWt2PblS/Bp3xtebbsjLXIbcuIOgwSkw4RbRCUmwaV6QsJEeb8pBIH9pEMxftwYJCQkYsfOXSaFz7pOuU+MfusBk8ROkfy2GX499v78X/hG9MHhZV+j981P4dCSz9Bx0h1Y99b96HH9w9j1fW34hcVQEGi/+t/2IqoqSpGbcAT7538Av86D4BnWqV5OjhkqSvIRu3mJEIWWWJpMEHijdZp0mzAnbkh2Lh4SxyFBoIxI9tXpytuRGb3vNILA0IKNgzMo3ZAoUFng5lhZVoTg3mPEA6Ck6d2+N3KOR8ItJELkzNykE1Ifwb3rrjsx/9f5sLaqlX+N4h4xEIXJR1Cel4F2U59C2u7lQhCcQjqiJCMB1s6eKEo5Ct/eV+DYr2/CyskDNk4ecAhqh/jln8I1vAfMzC3h0XGwHKfX79f3KpRkJsimkndsN9w7DERZXgZcw7rD0t4ZadsXwSkoArnH9sjCL81KgXuHAYhf8RkCh92IxLXfSffOhSAwz+DgbzvrxmlpawWvtn6Sa9DvjpGoqqxCVnStzOns7yaqQcqBBEz8v5twZMU+hPRri5T9x2FhZQGfiMAmEwQrcys8OfhufLt/PqKzj6Ojd1shBhvjt6OXf2eUVpbLsdGhgzClw3h8sfcnbEqo9dBODTHQ8NOTJ1GgoaXRTklJkd80sFQYaORocOlJ0pCTOBgGmdfyMxIFKhEkEGdTEAICAoRQUP6n909PPzk5WeowyAkJg1HORBBIAFgH22JfWGjI2FcSBIYfSH7OhSDQMKUf2Y3u1z0gcWYahICuQxG14hshCN2vfxhZMftF6mRc3MrWEWWFueJttuo7Tsg476fSvAyUFxeKN7bvl3elrxwzFQRKvwMH9MeSZctQXHxybszZNivmFYUNuQaOXoHIiTsEC1t7OPsEY93bD0pcnHHWXXP/LSpiMHOS9qxHQdpxCSP0vvlJkfRpgBl3pkfP0KRBEJyd6e0DhYVFmHnzNCEJnNdDkYfFI162fIVJ+2inSbfDWeRwM1Em3QLDYWZhibjNi8QT7HL13eKhkuRUlBcLQeD+0+nKO8SAsd8HfvsIbUfdAPeQ9igrysemD56qy5tiZwyCQCxdXV1E/aCcv3SZaX3tddPjiFz2JZz9QmHn6iXhotD+E4XYFWYlI7D7cFFokw/8LuSAPwzZ0MM1Sn2CQLl99Zq1orz07NFdCKEphfK4tYPzif3F2k68ZSrE3ac+hOj1v0gImJ8x/OvoxRDXWjHuVIoKMxKF8JAsHF7+jZBUcytrDHvgLez45lU4eQeJzdg//0PkJBwRIznkvn9LSIhrv8tVd4rKQ3mfe32bYVNAZY2kkmTvVAWB5IDqH9fL1CmTsXzlKuTk1Kq8TSlck636jZMQGEM8vaY9jvSoXXLvMWySemCLeP4FafFCjnfNfROdr74L+399v676WoKQDK+wrigvyZfQFknO0T+IdJ+ZT8s9ymLj6Co5CgxBtNTSZILAZCDKcWTonHhrR1eJi5IgMP7C0veWZ5BycKsQBAd3X2RE7xZCYetY++poejxkz5QiWcpLCuWGMGQnJovUVFVI7NLczFxir0ahEfn2m69w6223w8vD/SSCYO3ihcAh16MkKxnOQRFI27VMCIJbu77Ii90D56COKEyKgkenIfUIgjus3XyE5JAQZO1fBxtXn1oD5O6H3KM7kBezp3bDJTma/SpiFr0Ljw4DUZQag/zY/UIEChIOwymwnagWIaNnS2jB1s0Px1ecm4IQ0r8NvNsH4OBvJ+LHTj6uCO4ThpLcYklU9O8SjD3zauNwQb3DUJSRL4pDQI9W2DtvC3rNHIpDC3fC3t0R/e8chQWPft3gOq2fg3BHzxtRUVWB+VErRSIOdPZDN98OWHhkNSK8wjGy9QDMPbAQN3a+Eq9sfB9PDZmD/237EqmnhBjofVOSN4y1EfOnwaaRpTEnaeDc0iCTNJAI8DNKiTyfxIF11C/1CYKnp6cYbSM8YIQCGCagckGSQELCEANVB8bnSVrOFmKgKsBwhVHYHgkC+0mSwGM851wIAsMJNPw+ESTFh2VjZDJaetRO2Hv4CWmmwR1w+4vY/cNborw5+4dKgnBgt6HwattDiAQ9fZJvJn4l7q71vm2srTFs2BCkpWXAzs5W4uWmFHrkrkFtENB1iIQSqBq07jdBCAJDGgPueFlCBkxIHHDny9j+xUuiKFIeZp9o8Ci38n5nCIXJZvHbaj1d4ti/bx/k5ObC3c1NjFrfvn1kjogtvUJTSrdr7xOyRCJPz59hDxosYsF2afQZN+9xwyNAdbXIvcyfoPrZZfIcpB7cIn2nNJyyf5N4x6c6JhMnjJOYv6FaDejfD7GxcSaHGJiDcGT1DyLf23v4indubecg7Xq164HchKMS2ydBcA+JkHk+sOCjWrX2j1KfILQJD5NwF9fzgQMHTc6JaD96GtKPnghL0JFjeKsoJ02SA5N2rxMiw6S+A799KCEZkoY2w65DRXG+yO8kGcybiFr5reTAhPQbD0dPfzH8VKK4HuK2LIaLf5goE6EDr0Ru0lEhvDSgzG0pzkpD2uFt4s2bWZjLvCXvWQ9zKyv0mfF0XYjB2toKQwcPRmZWFnx9fbBi5WqTnmbiPTX84Xex/KWZkjsz7KF3sO3zf8qe3+Xqu2RdeIV1wZE1P8h6id+2XGwdyTCLk0+Q5Biwf1nH9sGrTQ/JdQnsOULUE4a2iEfSnvUydiqDDGXE/P7bRU2YN+X+aezcJhOEtiOmSn6BJNMMvhqph7bAybcVirJSUZBam5TRbcr9OLj4M4lRUSLd+9M7AhKTQ85UmBWbGb0HbYZfB1snd0St/E5ICL0QZsXSs6pfKO8di4nBmb4HgUmQ9BwoV7lHDGBkANmHN8PC1hGVxWfOUvfsMkyIgHf3MShMPiphAxIL1mE8eXFWAGkwHN1QXphTl0jEpyiq/sjWPtu1jYUYzCzMMO6FqXD0da2rprK0HCtf/AURE7pj349bMOb56yTvgMXR2xmHF++Gpa01ErYfQ3F2IdqM6oS0yCRc9e8Z2PTuChxb13DSZn2C8PLIx+BoXfuUBMvio2slKZGY5pbm49XfP8RdvW7CvIOLEJ+XjIFBvdDNNwL/2/7VSQoCPVluYGT9NPI0rPyfxplEgMabv2l4ufly8+M1zDMwFASGBE4NJ9QnCDyPxIJeBQkBCQIVAhIEEhGqAVQBWDf/ZyExMfpQX0Fg39hH5kMw78Ao7D+vJ4nhMcbJSUzYJseQ9keymik5CLXJWllw/SPObLRF+ZVeMD0yKgYdJswSIxs2+Brs+u412Ln7iBGMWv4NuMEnM1E4P1tio3t/erv2aYI/VAT2m302tTDUURvXP7kwNs4YM2PohRlJEh4xCkMee35g+5WSsEzvnAlh3EwH3PEStn7+IsoKatcq55hkwJhXIV5WVigz8XFTJtWFDb1GnpTwatsNRZm180vvk3K9g7uPeKuB3YZj9w//Ec+0w/iZkje096f/gpI/HZSj635E5yvvFA/4yOp5yE+JNRWyJp1P75L5TvWfKmFC3sHFn4phYdKcX8d+4sEzgfDgghMOUkMNkGizPlOf/mB99NjpzBmFWf7Mv+AaNApVIiq6jp5+MDe3lJAHQ8LWji6SJHtw4ceSS9Nx4ixRcDKP7RNS0GfWs0jYsVIUG4afk/ZuEBJ3fMsS+HToI4ThwIIP0W/W86J+5afwqRMrIaS0HZTtI8bfgoLU4ycpKEYO0fl6iqluoGZmQs7kCZY/kkJ5D9QnZ/XnQPJ09m0ACSqdZobTuk15QMiQcYyOMIkn12X9JMgmLZZL5KQmEwRO7olsWjOJzTPBhAkqxoIn0+TjO3zEjouEm0NTCo077/KmPk99ti9KsrCxh3ePscg6sE7yCs5WHAPaSpigPD8L2VFbRb24WKUxgnC2fhBfrmF+Z4HxlAOTrDhHxmONpo7jQj7myJva1Eftztb/U0MM51L/n/WY41n7fNK91jASvN8Ys6Y3dLFKU773gPtC/T7V7gsX5t4y2jqtX39gKHsU95Z6TwJwv6EDIMnG1VUSijHjUytVlfL3hcKTsfr6j9MJWbKw/MMZqW33xLo4T19wcpaFIeM3HsnjeWZmte3XC9/W9odPAvJzPk1R+0TF6eug1iYYNuK0uqX62nVx0rV/zJMxF7XX146dc8L1fSmXM93HDMczPFL/6ZNLeQxntTVdunWviYs73qL6fzl8k+K5EIQLMVn+fULQ4cbesDjXL0panoDsA6Ylb5k6HkqqVB7ORzmf36lQUVGJuPgT+Q3no39ahyKgCCgCfxYCTVcQ/qwenqHd4ED/S6g3zetKYVERsnNqn+vXoggoAoqAIqAIXGoItEiCYGVlKXHMFltqgIrKClSLZKdFEVAEFAFFQBG49BBokQTh0oNRe6QIKAKKgCKgCFxeCChBuLzmU0ejCCgCioAioAicFwSUIJwXGLUSRUARUAQUAUXg8kKgQYLg6nLiG7YuryHraBQBRUARUAQUAUWgMQQaJAitggPlO+21KAKKgCKgCCgCisBfDwElCH+9OdcRKwKKgCKgCCgCjSKgBKFRiPQERUARUAQUAUXgr4eAEoS/3pzriBUBRUARUAQUgUYRUILQKER6giKgCCgCioAi8NdD4JwIgp1XMEqzkk5786GjfxsUpRyDnWegvGGxvDAbFYVNf293/WkYO3YsVqxYgR49euDAgQPo3Lkztm/fLqcMGzYMe/bskVcC8y17fIMf3xm+fv3Jb4G8pKbVzAwuod2Qd2w3rJ0967pWVVaEqvJS2HuHoCQ9Hjbufqh9iRVQUZiDypITr3w1dTzOrToj//iBZr88hHPo4BuGotRjcPALQ0lGgtTFF6/w7XRGsbR3hqWtI0qza9+qx2Lt5C5vzKtBNaydToy3LCcV1VUVskb4EhujlOVnorKoeV9BbecVhPL8bBDLhopjYDsUJR9t8ovBTMVaz1cEFAFF4HJBoFkEwTBsTkHtwTdX5cbsFTzK8zPB1x379rkCGbtXwH/QFHmjYlVJEdJ2LjEZM747/oMPPpDX/7Zp0wb5+fnyGuA1a9bgv//9L1599VV8/PHHeOmllxATE4Nt27Zhx44dOHSo4dcaN9QJ757jUBB/CIGDp8qb5ypKC5Dy+89wbdMLtm4+SFjzjVzq3WOMGLyKojxY2NgiO3KzSeOiAW017nbELf0IgUNvrH1xGYCc6F3Ii96JgCE3Ii9mFxz92sh77s2tbFCWl4703StMaodz1Hri3fLqaSu+5720CDVVlSjNSUXi2m9NqosEwavrCCEsxMPKwRVluanyYrejP78On57jhDiwcHzVlWWoKitB4vrvYWZuidYTta6OnQAAIABJREFU70Hyxh/gHNxRzrH3bY3k339CUVos3CP6w9Ku9pFaW1cfFGfEI3PfGpP6x5OJE1/fXZh4FKXZSbB184OlnYOMm30IGXsrqstK5PXfJBA8v7KkEEfmvWxyW3qBIqAIKAJ/BQSaRRDohcHMHDYu3qDXlhu9UzzKouQjcI8YAM/Ow8RwWto6IC9uP5wC2zeLIAwfPhyPPfYYvv/+e0yePBk5OTlwd3fHCy+8IO+Tf/755/Hrr7+KkvDDDz/IY5np6enYtGmTyXMXOHw6co9sA73t9F3LYesZgMAhN6Ig/qB4/Ie+eEpeh9phxkvIidoqxIcGKG3HUpPaYv0Bg6cifedSVBbn111bXV0pxszSxhHF6XGoKiuWY1b2znAJ72my0SRBkHk4tBFOwR2QdXCj1OfRcRAy9q42qc8ct1eXEfIK1oqSAnh1Ho7ijDgUxh9GXtw+8BXbDn7hon5kR21BwKApSFz3vYyPxIEEozAxqk5p8uk9EYUJkShKjYFLWHfYOHtIf2zc/FCSmWjyWHkt63HvMAAV+dmibNRUliP32B54dhqM9D0r4damlxACa2cPVBTlw8zSUl4ly3nQoggoAoqAInA6As0iCOZWtrC0c4Stuz8c/MORdWA9auh1F+fBMbAtQkbNRsb+NTC3tEH+ORCE/v3745///Cd+/PFHBAYGIioqCuHh4Vi3bh327t2Lr7/+GmvXrgXPo7rw22+/ISIiQq4xtRgEwaPTEPHk7byDYe3kIUbF0s5JSBDfk+7ZdRhK0o43myDQm297/d+RsWeVeLFOge1QnH5cZG9K7u7t+4u6QJWhvCBHFIbCpKPIj61VaZparF284NFhIJyCIlCWkyZhHhYSDxIgUwpVAXrnJB30wLMOboC9TyshgInrvkPQsGmoKi+REEn9knN4i5ATqi6RXz2DsKsfRHF6PCxs7ERhopdPAlFdWQ7HwPYoyYiHlZO7KDlcU6YWtpNzZAe8e4xCVWmxECH/gZORtH4eQsbMRlVFqbyTviwvU0gNS9L6uXXvuDe1PT1fEVAEFIHLGYFmEQSX1l3g1ra3bLKUhyk3l+akIW3HEgSNnInKolyU5abB0sFVNnuGImgQaQhMKXfddReoIqSmpiI4OFjUg+zsbLz55ptwc3PDtddeK8rBVVddJYoCScPWrVuxcWOtt2xKMQiCd/cxEq9nCCEvZrd4+1QLPDsNEUPOY7Zuvs0mCMFjZsHOzV+Ml0+vcSKpl+dnIT/uAIpSokHvOm37IrS59lFE//ofCQuQSAh2Naa9/ZGGuM3kxxC/6kuR8lO2zK9TJkzBhue6te8LG1dfVJeXSt4ByVNJVhJyorYgeMQMJG/59SRFxKiffWg79SlEfvUsgkfNRPzKz+UQx1RTXYWQsbchddtChF/9MGIXvSuqx/HlH5vaPTnff+C1sgZ9eo2XPhoEIX3ncvj0mQBb9wCYmZlJPkdpbhryoncL5uyHFkVAEVAEFIGTEWgWQTCqYJIiPdT0XcvkIzNzc/EwvbqNRMbulSL7MqGNhIKyb+rWBSbhz6RD5hls3rwZISEh6NevH1auXInIyEjs27cPc+bMwdKlSyXEMHfuXDzyyCOYPn06akw0pOyUQRCogKRuXVjXTxKEwuSj8O01AaW56cg6sE7G3NwQAxUX354TkL53pXjP1o7uyIvZA7eIfohb/AF8e09kaF8IWNT3LwpBoGFN3fIbygtzTMKPeQOl2SlwDe+BlG2LEDxyhhjo+qGNplZIglBZlC8hpawDG+AY0Bbm1nZCEFqNvQ1xy85s1EkQ2t3wtBBErheDIBDXpA3zakMD7fvD0T8cpXnpSNn0i4QjmlOChk9D8uZf4dlluKR2GASB+Q6+fa+S9efRcSAKEiJRkpEIz85DkLl/XXOa0msUAUVAEbjsETCZIFBu9+4+SoAhGWDCWmlWovzPRLuS9OPwG3CNxHdzj2wXiTxw6A0oSIhC2o7FJgP61VdfCQmggvDzzz9jypQp2L17NxYvXixKQnFxMaKjo9G+fXtJTgwKCsIrr7yCiooKk9pyad0VJVmJsHH2REE9A+Uc0gnlBVmwsLYT4kHv08bFSzxxZt+TPJhSSKJCJ96LtN3LJJEvcNiNOL70I3h0HIyUrQtEji/Py5RQDZMla6oqYOsRgLjF75mUeU8i4t5+gHjI7u36IT/+oDxRwFBD+s5aQtfUwmRJ946DYe3oJkoGx855p8qSvns5/PpdhZTNv56xOq6XkDG3InHdt/AbMFkIi7mlFSqLC1BZkveHApUha4SEiCEeYmxqiMG751hRWBjWYlIn814YUrCycxLyEjRyhiRsMgeBT0lUlhVLnkKaiVg0FTM9TxFQBBSBlo6AyQShKQO2tHFAdU1V7SNwzfDm67dB5SAvL0+eZDCKk5MTCgoK4OPjIwShtLRUEhSrq6thaWkpfzdHRWjK2M7HOVZOHqgoyJJETxIGqgQXqzB/pLri5FyBRts2M4e1o6uoJvULSRNzD/h0w7nI9Ex2pcGuKi1stCsNnVD7dEIxLKxthHgxsVLWnpk5UFMthIbKCZUso1jau6CyuHmPVDa7o3qhIqAIKAItBIELQhBayNi1m4qAIqAIKAKKgCLQAAJKEHRpKAKKgCKgCCgCisBpCChB0EWhCCgCioAioAgoAkoQdA0oAoqAIqAIKAKKQOMIXBIKwojrZjXe0/Nwxvr536Cy3LTvYjgPzWoVioAioAgoAopAi0OgQYIQHtpKngi4GKXToDEXoxlEblmDqkrTHn+8KB3TRhQBRUARUAQUgUsMgUtCQbjEMNHuKAKKgCKgCCgCf3kElCD85ZeAAqAIKAKKgCKgCJyOgBIEXRWKgCKgCCgCioAicBoCShB0USgCioAioAgoAoqAEgRdA4qAIqAIKAKKgCLQOAKqIDSOkZ6hCCgCioAioAj85RBQgvCXm3IdsCKgCCgCioAi0DgCShAax0jPUAQUAUVAEVAE/nIIKEH4y015yxiwubl5y+io9lIRUAQUgQuIQHX1iVfUX8Bmzli1EoSLjbi21ygCZmZm8i2eVVVVjZ6rJygCioAicLkiYGdnh6Kioj9teEoQ/jToteGGECBBoIKgBEHXiCKgCPyVEXBwcFCC8FdeADr20xFQgqCrQhFQBBQBQAmCroKLikCHDh0QGhoqrHTfvn1wcnKCj48Ptm7dKv1499138fDDD6O0tBTvvfcennrqKeTk5MixYcOGoby8HJs2bcL999+Pt99+u67v3bt3R1JSEmpqajBp0iSkpqbi4MGDOH78OCwsLDB58mT88ssvCA4OlvZ79+6Nf//73ygrKztt/EoQLuqS0MYUAUXgEkVACcIlOjGXa7dmz54NPz8/bNu2DW3atJGflJQUbN++HRkZGXjrrbfw3HPPYcqUKTh27Bj69++PefPmYeXKlXjzzTdx5MgROeedd97B5s2bBab58+dj6tSpcn1ISAjat2+P/Px8JCcnY8mSJfLZiBEjpD7G1EgcEhISpK4zJeA0RBD4eUBAQB0RMebIyspKmHZlZSVsbGyQl5cnf2tRBC4GAsZbb7mWuRbt7e3rSLWxZrOysmSNZmZmXowuaRuXCQJKEC6TiWwpw3jxxRdFLThw4ICoBP/4xz/g7u6O6dOni3dPBYEEoUePHrKZDRkyBJ9//rkY9EGDBskwg4KC5PrIyEh89tlnuPnmm3HrrbeCm2CvXr3g6uoq51FFeOyxxzBhwgSMHz9e2vX19RVCQlWBbZ2pnIkg8HySA7ZN1YEbcUxMDHJzc0H1oqKiAkePHkWnTp2QmJgoSgbbUaLQUlZmy+0n1zxLeno6SkpK5H6KjY2VNWlra4vw8HD5nH/zHmGhKsf7T4sicDYElCDo+rioCLi5uYm0/+STT4JqAkMGw4cPF6JAFWHRokVi9GlsZ8yYgTfeeEM2Ohpohh5YeJyKwH//+1+sXr1aQgoMNzg6OopysG7dOtDId+3aFY8++qi0RSWCJCM6Oho7duwQIkFFoqkEoWfPnqIMFBcXy+barVs37Ny5U9rhBswbqbCwUDZinsNxRkVFCVHQoghcLARIUKkg8H7ZtWuXqGlc82FhYbIWSWqZfMt7SpNwL9astNx2lCC03LlrkT2nJ3/XXXfh2WeflTACje6oUaMk34BPDjzwwAOgyjBt2jQhDAMGDMDSpUuxdu1ajB07Vsb81Vdf4dprr5UN7p577pHzhw4diuXLl4ta4O3tLUaanvzChQuFQBQUFEg44euvv8acOXPkMUZe11SCQCLA8ASJAVUDbrRUEvi5v7+/qB+HDx+Wej09PWVczInQoghcSAScnZ3Rtm1bWW+8H/ibm7qHh4coWFybXPtU46h+UTWgqsX1q0URaAwBJQiNIaTHzysCNKiffvqpePUMDXzyySeiEsyaNUvaYc4Ajf8TTzwhxpYLlCqAl5eXnM/rqUBQeeAxnj9x4kSR+SmfjhkzBoMHD5bkx8WLF8txelB33HGHeFbvv/8+Xn/9dcmBoBJxJg//1BADr2vXrp1It0yu5DU8hySE+QxMeOQmzP6SNJDoGCGH8wqeVqYInAEBEgSufa49Kldco61bt5YwHO8DKlskBkwQjouLEyJxpuRcBVcROBUBJQi6Ji4qAswP+L//+z/ZyJh8SBWBHjdDBYYhp/RPMsCnFeitd+nSBa+99prkIDDxkMpCYGAgXnnlFdkEqQQwV4GeEXMZGHqg1E8SwjwDGnGqBkyIZA7C888/jz59+sgm+c0335w2/lMJAv+nZNuxY0fJeyA5IRmgbEsvjYmJJBGM8cbHx8vmzFAHN2b2X4sicKEQIBllKI1rkiE2ElWuUZLW3bt3w8XFpY4gdO7cWUgtlTTmKGhRBBpDQAlCYwjp8QuCgLW1tWxq9QsT/7h50eDS2BvHKe3T4J9aeD49dRZew79pzI3YKg0262CdrIN1sl16WMa3JRrX16+7oacYqFJwg2X93JjZPskH6+STGXyKgtIubypuwCQVPF+LInChEOBaIwkgIWU4gWucChfXIXNk+NtQECIiIuTJHc09uFCzcfnVqwTh8ptTHdE5ItAQQSARIKEwwhIGQTEUBoOA1D/nHLuilysCTUaA65Cl/reAkqSSIHPNkkRraKHJcOqJ0C9K0kWgCJyGgH5Rki4KRUARUASUIOgaUASUIOgaUAQUAUXgDAhoiEGXhSJwCgKqIOiSUAQUAUVAFQRdA4qAKgi6BhQBRUARUAVB14Ai0DgCqiA0jpGeoQgoApc/AhpiuPznWEdoIgJKEEwETE//0xAwt7SChbV9XfuVpYWoqa6q+9/KwRUVRXkwt7IG/vjabzNzC1RXlMHCxh7VVRUws7BEVWkxLO0cUV1RiurKPx4ddvFCWV6G1GVT7+/6gzUzM4elnVPdR1W8vuLEG1J5rKqsGBa2Dqgszoe1kzvKC3PAfqO6Bha29qiuKJd+1FRXw8LGDlWlRSfazM+UfrN9XldT9cdL0PjNpu7+KMlKBsxQ+3d2spxr5eiGyqI8mFlaydhYeF11ZTnM5f/apz0srO1O4FZSgJqa6j9tHi/VhpUgXKozo/360xBoDkFwjxiA4vQ4eHQYhJQtv8qmp0URuNAI2HoEwL//1SjJSoKdVxDMzC1BAsASs+C/8O1zBQqTjsApKAI5R7aLbXRv1xeJG+YhcMiNNJ2yVnmOd48xKMlIQM7hzSjOiEfopPuQtmMxAoZMhbWTJ8oLspC+cxlyo3fWDYskI3jkTDlGIw4zc5hb2cjxuKUfwsEvDM4hnYQQpG5bBN/eE5EffxDl+ZnST5+e46RtSwdX1FRVwMbZE3mx+5B9eDPCrnwASRvmInjMLFg7eaCiKB8VhTmIXfQ/eWyz1bg7kLzxB1jYOcGv35WIWfCOEASfXuOFlDj4htaRgKryEqTtXAb/AZNh5eSGgvhDQHU1bD0DpC9pO5eiolC/1OzU9aoE4ULfwVp/i0PgVIJgbmULGxdP2XxLMhNg79MalcV54l1xg7TzDIRb+37IidoKO48AZB7YAFt339rz04+rZ9LiVkDL6nDwiJvFu+ZapBeesXcVQifdi2O/vgnnkM4ozUmFc0hH8ZxrUA1zcyuk71qG8MmPInX7IhSnxojC4Nv3SpTlpiFj90q4tuklhCH6lzfh1/cKZEVuRuCQ6xH9y7/F+NYvPj3Hiopgae+C5M2/wCmgrfQl88B6OLfqLEadZMAxoK2QBSoU8Ss/g3vEQJTlpKEoPRbWDq7wpmEvLUTq1oWiNASNnIHUbQtFEeGPc3AHMeTlBdlCNOz9wlCemyZtWTm4CdHI2LMCzq27ojA5Gm5tesLW1Rc1qEF5fhYy9qyUtn16jUNRagxcQrvJvVuelyHtsF4tJyOgBEFXhCJwCgKnEgSnoPYIGjkTxSkxIlvSW3LwaY3jKz6FT68JsgFSQeD/QcOmIWXrfNn8qkoKkBW5CYWJUYqxInDBEPAfOAX5sfvEGJflpaOqrAiOge2RuPY7+A+8Vrxxr64jUJIeL31wCo7A8ZWfi/fu6N8GFUW5KEqJgWNgO1jaOyFuyUeoKMxGm2sfRXbkZiG/5pbWqCjOR37cfmQdWH8aQSjLzRC1IGnjD/DqNkpCB6lbfoNreE/YeYegurIMZjBDZXEB7H1aIfPAOlEcgobfjOyoLUIIrF28UFNZgdStC5AXuxdhVz2IzP1r4dFxkIQNaMCry0uRsPYbCWOw/1RFrOydhRRQuUMN4D/gGlQU58nY2G8WhhdqibufkKXcmN1CTti/wuSjKE45pgThDCtUCcIFu2214paKwJkIAj0xehltb/g7KksKYWlrj7Rdy+EcFIG4pR+JDJsXs1cIQvzKzxEyZrbERxPXfScEQosicKEQaD3uTpjb2In3n7p9Mdpe9zfELnlfCIGlrQPsfcPgGt4dZbnp0gV731DEr/gMoVfMgZWju3jWJAkwMxMykLDmawQMvBZ27gEoSouV8ISZhQWqSktQkBiJpPVzTyMITiGdxcunahEy5lb5m/cBi0tYD9h6+EmuBBUChkXYplNQB/j0Ho+UzfNh6+aLnKM74Nt7AhI3/ABHvzD49b8KmfvWyvWWdsxhKBRiQHJBdcPS1hFV5cV1YQ3mLhxf8RnK89LB3AuPjoNRnBZXO2afVkja8AMsrG3h1X20kBwSGioluUd3CPEhidCiCoKuAUXgrAiciSA4BnVA2vZFCL/6IcSv+lK8k6K0OPj2mSix1lbj7kTG3pV/KAi/Sf3mFlaw8w4+bUNV+BWB84WAmYUVAgdPFUPu0WEgUrctQNCIGZJ/UJqdAtfwHpKkSGNpEAQHv9aIWfA/SeAzjCilduYJuIR2RdLGn4TUBo+ehdgF7yD0yvuQHbkJnl2GI/rnN05KgmSSom//qyR+z/BBbvQOOAd3QnlRDpI3/ghrZ0949xwrBKSWIBSJrJ++e7kQmA6zX8Whzx5H0IiZKEw8BM/Ow4SIMxciZOxtiF38HqiQlGQlwtbNT+qkIafSEXrl/Tj6wyuw8wyScEHK5l8EVrc2vSWs4t1jtLxzhYX5mSQsVElIQrIObYaVgwuoDhYkHEbOkf9v7zuA4zzOLN9EAIOccwYIMOccRIqUREkUSVGUlazzOW/Z67PXW7t7dXd7e7VXu3tnr9c+rW35rJMc1tYq2JIoWpGiJEYxk2BGznGQc5jBXL1vMBADQBIgwgD4usol88f/d3jd0/36+77ud1zcEJqUIOgYUARGRBBsUSmwxaTIboY7jshFm2U3Qz8qd0FRi7fIhEr/aNTSrag6+kchCpy8Kw6+gu76CkVcERgXBAKT5iA4ZQG6m6rhExQFo68fWgrPymJOK0EyF/l3fyE7bsYbcJGlu4FWAgYTpu/4rizujEFouHwUAXEZsniT3MZveEIsYLSeRcy/B92NVag+9rZYKjyJO/X4dbvRXpkPv4h4dNQUy+LNvBuvHkfUonvRePUYWM/m/NMSv8C8GIjY3VCJuV/+32gruwRLYJj8vrhg28/tR19XG9Ie/paQb5+QaHEbOHu75W+MNUi45yk05Z+UYEPGBHkIAglLxq7vo3DvTxG7Yjtais+J68IWlYyqI39EcOpCtJach19kMoxWX4TOWi5uCv5+u+xuF4ymzxFQF4OOBkXgBgRue4qBu5KBI2P81GA0SnDYdWlg53Ltewq0IjBeCNAawIWUO3Tu1s3+weKvp0mdFgQukgzGo3uBxw3dpwh44sBXjha63Wb+Uj0uxO7jiV2wBITIos5vWAZjcHiEcKhE8sHEOAgGJdL/zzIYu2ANjoCjo1XKoluDizGPFVr8giRP1pHHLPnbczmdcuzR5BsgbeBztomnHKwh0ehpqpGYBY9FhMcVWV+WSzeJxRYs7/uExaKnsRq+4XHo7+2R2KFBYmMLpqrV4L9plfAcrxyvPpqK+SpBmIq9pnUeVwRuSxDGtXTNXBFQBBQB70BACYJ39IPWwosQUILgRZ2hVbklAskPfBVtpZcRkDBLduw8MdNWmSs774D4LPfJBF//ged5svvnM75vDQhDe2Uu2iryxLogz+NnScAgzfhtFbniBvA8t0Ulob0iT1wVnsT3GUwo5Vbkyn/5zPMNT0ewDOZHM7/nb131FfIun/Nkgec5rQJ8xr/RSuDOJwuOjma0DTynRcHzvL+XgZPufBhD4Wkz+p2Dz3m0wf18FoxG80A+V+X+B089zT42FL/3f3W03YCAEgQdEorADQgoQdAhoQgoAoqAijXpGFAEbkJACYIOCkVAEVAElCDoGFAElCDoGFAEFAFFYAgE1MWgw0IRUBeDjgFFQBFQBG5CQAmCDgpFQAmCjgFFQBFQBJQg6BhQBG6HgMYg3A4h/bsioAjMBATUgjATelnbOCIElCCMCC59WRFQBKYpAkoQpmnHarNGj4AShNFjp19OLALUE/ANixsstLOuRG5AdCeDKBfyOmJeZUwBJSbersibFCmaRHVFKi/yXoKA2Ax0t9QN3pRIhVJqMDBRUbHh0hGqGlzXQN69QNEjT+JthtdqGvgzz4ZK+EUny90G1IZoKTgrNzT2Ox2wRSSgp61RRJx4gyPl0jvrSiW7sDlrRULd5XSIzkRz4dlBqWne6hi1aDPqzuxjMxG5+H4RgOK71JPg3RBm/yCYfAZuh+zhDZMtMPPfA7ec8v4FT6I8NG9q1HQ9AkoQdEQoAjcgcCNBoPZCYEK2KMRRRpbiLpyMRpqSt34N1UfevO7KV050YVmr0HD58LDZ+YUnIHrZg3J9Li+dqT35rlyRG7d2l1yv21GZh9rT74nWPRPfrTu7TyZLppQHvyF36nMxGGmKXLgFbWUXRfxmuMQ2pGz9hlyTy0mfC5K055rrqEdarr5/ZwhQMpliRhwXVF00+QWgv6cbPqFRuPry38vCzmuUuYg3XT0my3tY9ioZD1SBdHS3y7XE3Y01iFp8Hzpri0Ue2tHVhqT7viICSIn3PivXEPuExqB8/29FitmTqGeQdO+z6GqohC0ySa4cpzQzF+Hid56HT0ikW/q8u100D6hbQmlo5kFyw/qROJDkcBwZzT5oK78kZIBaDFVH3xBNCLj6YbT4ia5J6YcvytXRcWsfRf35AzDbgtxtOviKSDiHZa+WvIKSZst1zUy8Lpp5RS3ZClt0sqg38pl/XKYQGKo7Uk5akxIEHQOKwC0RuJEgUHSJd8vP/g//U9TjOHmGpC+RyZUTjX9chnun0u8UIZuAhGyZZCkxS1LBe95bi88j64n/ipIPX5SdHJXvqENvNJqQuPlLKHn3eVngKTpDMRnPZMXdXsajf4mid34mO8PweRtg4JbJaJD3Gy8dFkLAnSPlppkSNz6NysOvDxIGTsKtZZfhGxIDa0gU2kovwdnTAb/wOHDnRLEbTpZMXCyC0xehOe+kTPaxa3bJM97Ax0mbixDFdTx3/3Ny5S4y47G/EqU/ygJTAKjy4GtyD7/ZLwitZZcQNms5OuvL0VlTLG0kphTIcfU7hORwp6hpdAikPvRnskhSAZELed25j6QPeDMgF/2a42+DRE92zEYDelvqhUByAa488geRROaYj7/nabgcvag89CqCUhciduV2FP3pp4hbswvNBWdE+bH0w5fg6Gq9rqLRSx8QSWaO88I9zyE4dYFoI1CWmSJL9nMfwy8qWZ7zt9JdXymCZhHzNwlRoAgUfzspD35TiEDRO8+LqBQl0ykOxWdsHxVUa069IwQjLGslglLniyIkSQpJdHPhabSWXET08odQe+p9sZ74hESJ0YMWk+bCM/Ibil62VUSl4tfvdktG93SJ+qUShJvHn1oQRveb1K+mMQLDuRjmfuWHyP33v0fUoi3ooghMWIyQBRICXvXqH5Mqu3Tu3Hvb6kGJ6LbSi7Kj4lW2lLLlhBw5fyMaLh9B1JIHUHnwFSEIVYdfR+zqnSJ1G7FwE0ree0FMnpwUSQAK335OEOdiSotAyfsvIGHDF+Do7pTrbxsuHxrcsd9IEOZ99Z9RcegVRC/ZiqrP3kTM0gdlt8V8JZ+NT4uMbuq2b4kQDklDc/4pKY+7Uy7iXHisIZGw+oei+vjbCIibha768oErbq3IfPxvYD/7EUw+NoTNXo3qY3uQsOFJeZcTNReYkPTFaCm5IM9ZD07yJA9Uy2y8fBStpRem8agav6bFr3scraUXRTGR5nmSUl5HXP3ZWwjJXI5Oeymil26VhZmJVw6z32kVC05fLKSWiyStDLxmufj9Xwp5y37671B16DUZ35aAYBlnlJDuqCm6iSDQrUAhqMpDryFm+cMyDkhSKe3sHz9LRJp4zTGtGZRArz//iRDljJ3fR/kn/4aQjGVCLq2B4fIbaCk6h/Qd30NL0VlZ4IPTFsgYooWKCz0JRfTSB9GYd1zEmUhoao69BVe/CyEZi9HvcAiBsNKaMUB8SVRIcINS5qG56Bx4vTLbTIJCJUklCEoQxu/L0yp+AAAgAElEQVRXqjlPGwRuRxB4/z0dn3xPJuTAMFlgKR3LfxtghH9smphkOWFSyS5mxTZRriv/9PcInbVCJmL6gHNf/QeR5K2/cEBMqbyLnlYDSvXSrO8fkybEoeCtHwsBoCk2ceNTKNv/W1HJ406NOzxO2h63x3AEITh1EUo/+H/I2PkXMnl7CELivV9E+ce/E6lq7vLy//CDwb6kBaE574T4hzN3/xXKP/m9TLKUzWXdSRxoQSBBqM/5WCZwLvSsZ8TcdSjd92ukPvwtFL/zc5mMg1IWICRzKfJe+yfErX5U8qP8Ly0YTXknps0YmsiGJN//VVFG7O/pQvXxvch+6m9R8Na/yFji4kkzemDyXPRwpw7Ivzm+ku77suywuVjTGkWJZlp3OGbp32cfUucgNGulEF5bRBLsOfuF/F2baEHwi0wRLQRaLeiSoEYC3RhMtHpRAtpk9hFC7Rfpzsc/Jl3GNsvj74WuqYiF96Lm2NtChGNWPuK2fiy+X1wUJqsNPa12iYuImLteiAZjJzj+6Eroa61HxaHXpAy3+2KDuA+YKEXNscbfbczKbZKHX0QSQrOWoyn3BNorrsoY13Q9AmpB0BGhCNyAwO0IAs2m9ZcOi4neGhQJa1A4qo6QIKwYMNeaZMLzi05B3en3ZYdMk3xo5jI05p1AYPwslH30G2Tu/mvkv/HPSNv2LVQceFV28gVv/ggpW7+O0g9eEjcA9e3TdnwXjZePiEsiecuXxOzKCZ/+58pDryNm1XbZHdZf+FRakrjpGdRfPCSWjP6+bsz6wn8RC0JwykLx35Ig0IKQ9vC3UbDnJ0h96JvIffUfxZXRXn4Fve2NaLzy2aAFobuhCs6edoTMWiHfZz/5t+ioLkD5py/LOx4XQ96r/zCIJE3JoVmrUPHJ75D2yJ+j9MNfycRMHzFjOoQgrNmF8k9+J5YVJQij+xkyFoUEj4sixxfHBnEt3Puv6KwpQsSCTeIGi121Qwglk294LIr2PCdxAly8u2pLYfbzl7/TOsZ+5dhJ3fZtMb3Pevw/S4yDNShCLA/XS52bELduNwwGEwITs2Xn7xeRiL6uViEhdF+FZC6Ds7cT1sAI6Wff0GixEtC1MferP8Sll/5arEq1J99BwqYvouyjX6O/rwdpj3wHJSQcm56Bo6dTrBIcfyyfxCZ569eR9+o/yu+LxIbxEkxsQ0vxeUQvewjOPrfrjOSi4tOXET7/HkQu2IjaU+8JuQ5InC1jniThWjno0fXG9PtKCcL061Nt0V0iMBxBoA+WvnJGfdMkyomKgVeicleVL1YBBjFyl8IdDF0INMNz8m64dFgmcKrb0RxqMBrEHUHTMCO7O+vKZJflH5WCjtoS8fN7ksnXX75lnANjDdrKr0hMBOMgOFF2N9WiueC0+GqZuMNnXZhoNqX/li4QWjIYf0CzMmMiQrNWSJ70z3K3SRLDSTI0Y6m4QGgCZhQ6d18wGGXXxYmbCxJ3qoxLYGKsAfG41gJAMzctKNyZ0fcdlDJfFiDGNrBc4sao+baKq2KGpuWB7g1NI0PAJzRa/PXsF7oY2NckpdErtqHu1PuIXfMoiv/0M7EW1Z56FxGLtsAWkSgLLXfdCfc8CSP7vb1J+t83OEpiGLh4BqUuQHP+SQQlzZV4FKbW0ktus/9AMln95D3GNdCFZPTxRWvJJfmNcHzzGclAaPZKNOefFtdH1OL7xfXEEw9ZT/439DRWi7WMedGq1lJ4Rtxcyff9R5R88KKcYLDYgtwLuMEMe85HiF//BXGh0D1CEuIhCLRi0DVR8NZPxALReOkQQrNXiduFFg2/sDhxDzI2g220RSai016OzrpiIQmarkdACYKOCEXgBgTG6pgjJzFOyvS7TpdE/zJjKrjz1+Q9CEhAqG+gBM6S2NGfz0XdwIOJLpfsvrl75/FCZ3enBBR6EgNGbzzix8Xa2dctLgoSXM8RyaHe9eTDBZf5kqzQOsHfEUm0u3w/kVeWkwoW63UnaobKkwRY8uB/AXeetAQMtIPuEM8zz+kHWtzcjNVdLgk3SQpJCcu+ts3e03PeXRMlCN7dP1q7SUBgrAgCJy6Xk2fPrz87PglNGrMiuUPjwuNZMMYsY81IEVAEvA4BJQhe1yVaoclGYKwIwmS3Q8uf/gjQXcO4DsajwGiS0zI9LXaxCFiDo+Q5d+w8Gsi/0SrAZ/wfd+N8l6Z+Z5f7lAqf82iqXHjUYpfLhfiMeVkDQuR9urg8iX8LTJ6H3pY6cVPx7+733XnRLcBnvc12WAJDB/NydDQPlG0XU78P6xoSKdY2eb/FLvXz5NXf2y114t9oPfC0od/Z525zs12sJsyHZdPd5m6bXarqeZ+uMjdGdULePfVkHA2PJmu6HgElCDoiFIEbEFCCoENCEVAEFAFACYKOAkVACYKOAUVAEVAEbkJACYIOCkVgAIFlln48ZXMiwSQXzklwlSZFQBFQBCYLgXaXAcd7DfhNpxndkzAdKUGYrJ7Xcr0KgXCjC78O7YOPAajuN0Div5UgeFUfaWUUgZmGQJDRhQgj8LtOI17oME9485UgTDjkWqA3IvCXAQ5s9+vHv7SZ8F6PGUaTEU6HW/1OkyKgCCgCk4FAoNGFV8L6YDYAO+staHXx4OrEJSUIE4e1luTFCPw0pA/zLS58sdGCin4jjEYjnHJEUZMioAgoApOHwI+C+7DM6sKXGy0ocipBkJ5ISUrQCXryxuSMK/nnIX2Ya3Hh6UYLqpQgzLj+1wZPdQTkSqip3ogh6/+DoD6s9HHhK00WFDqUIChBmJbD3LsbpQTBu/tHazc0ArzGOjBp7uAfeTUy7y5wJwOilj4A+9l9ImzkcvTBBZfcjkjZbUqO8z4Aio21FucgLHsN2qsLBq+8TtryJZR99Ftmg+T7voLSfS/dFJfDGxL5ndxeCIhGBzUWPClszlpRNA3m9d3nP0Xs2l2oPvqmXKnMmxCD0xaKwBnVIHljI+sk14YDIiZF/QS+R+nnqqNvisokE+9CSN/+HRS8+WOpX/qO76No73PybszK7bCf+RA+YTFy6ycTv+tuqIY1MFSuDec3gYlz3NV0udBw5Qh414I3JiUIJaU39YtaELxxqE7fOt2KIPAedyrWVRx8VQCI3/CkyDSPNPlGJMiFLS2Fn99lP9I89H1F4FoEzL7+iF39qEggh2Yuh8kvAJ3VRQifuw5XXv4fondBkSWqI7YUn5NbMKmPUHX0DRHnogooVR55FTFlxtvKrojgkg8VSFftQOkHLyJu7aNor8wXslH45o9FQdGTeFto/NrHJB9Kk/e0NcplRby0iEJiVCal/DdlovvamxExf4Ms0NRRoMhSQHym6HFQtdRsCxYVSOqGkLgkbfkyak7sFdLg6GwVzQ6KMDVcPiz6DCGzlqO9IleuUrZFJqMx9xgaLh6CLSZVpJwpEkX5aCZ+T4GygPgs0T5pK78q6peBqfOFLLWWnPdauWclCEoQdNabZARuSRACwxC3artIFzOJPPP5A+jraoHZNwAUzGkpPCeCRJTdpRhOR22x3DhHpULeJ8+riflvi1+ASOhqUgTGCgGqf/ImQN5a2NfRKqJa3HGXfPgi4tc8JiJFlPK2cjdNkbDuTlFOTHnga3J7YFd9pezeSTQoIkalUVtkkhDhigMvixIkxZMCE7JFJrzLXnZd1UmeAxJmi4m/cM9zIixGHQR7zieIX78bjbknRDo6IC5DxMUoIEaNkvDZa9HTUo/uxkrZ+VPJEf0OFL/zCxitvkh58Jsi98xvSB78wuOFHFCdkoSCMtQkE7xxkf+mIFp3QwXiNjwB+9n9CEiYJSJNrJejo1WID0XBIhduku8i5m0QJVaKiJXv/60ShCEGpAYpjtWvVPOZ0giMlCBQVpfX3NLUSVXF2tPvy6RIQpD/hx+4d1MtdvhFJorOfcbO76HqszdF8rbuzAdTGiutvHchQFEwjrGAhCzZUVPV0dHZgtrTH4jFitcRx67cIbt4JkpxF7/7PEwWH4TNWYcue7mY4qlKSpny4vdegKOjCXO//AORH6f1gdLm9gsH5ApnWhuuTSQIve3NsEWnoPLgqyI3zUWbgl7U7ghMni8S0yazj1ylzN+EPWc/uhsqMedL/4Qrv/vviF/3uEhE01pA9Uda2ajK2FlbJNLlsSu3ofLIG+IOcPZ2i4IoFSobrx4T5dTg1IWoPrZHiDiJkMFsld8nSQUT2153+gOEzV6DoJR5aC7KQRAl04MiRIFVCcLQY1oJgnf91rU2k4TArQgCJ7vEe58VbXqmlIe+KbuslK3fEFMoJyRONEXv/gL+MeliNiVxoMWAuy1OwNlP/x1qTv5JCcIk9e90LjbhnqfEj+8XkSgm+czdf4PCt/8P+toaRWvAPzpNdtMch0yBSdkoef9FhGWvElLRUnAa1uBo+ASHi3Ry9bG3xDRPE33dmQ/F+kAJ5pgVj6D0w5fEHH8jQeh3OkXWu/qzNxG7aqcsujXH98prsat3CkkxwCiWClt0MuovHIDRZEXqtm+haO+/InLhvbKDp3Q0/8a6k2iQZEQt2YpOe4lINdP61lGVL2QketlDsFOa2hbkdj8UnUNr8QXRnqCeRPi89YNkxmT1Qem+X0lcRtzaXeKqoCR6cOoC+f90v1D50RuTuhjUxeCN43JG1el2QYpp278rEyN3XT6hMSj76NdI2/Zt9LTWy8RL32rR3p8hfedfoProGwiftwGVh15D3LrdErgVOX+jBFnRH6wWhBk1tMa1sRxPsvvubEVgQpa4DGjRqsvZj6bc44hdtR32cx8jds2j6LK7YwcCE7NQ/M7zElgYu3I7Ou1l4rPn4hu5aLNYAZjStv8nWbxTH/ymvNvv6EPZhy+JG82TjBZfJG56RlwENPMzwNAvKhnO3i4h0SFpC2ENiZaYBIPB/DlBOP+JBDPO+9qPkP/HH4Iy4gxIjN/wBfmOKX3Hd1Hy3i8RteR++IbHgbLQJe8+L/UITJyNiAUbpR0kNcFpi4ScMMWt3S0WipgV29DbVi/PaLnj7zFy0RbYopLRdPUYTL7+EiTZUpSD1rJLQkq8MSlBUILgjeNyRtXpdgSBplJOMvRh9nU0weV0yE6FJ6tc/Q6ZvDhJmqx+sASFo7elHiZfm1gXGJzFyTb/D/9LFORUl35GDa1xbSyDBI0mC3iagO4tKiZygY2/50m0FuUgYsEmWeS5ANMNxnHIaP3id34uboXIBZtk599adhmRi++DyWIVcuErgYYWGeuM9udJCJ48oHmf8QuDyWCUQET+HhjEGJKxFCXvvyDuNsYxMBCxbN+vELnkPjTnn4YtJk1ISeGen6CvoxnpO7+H/r5uITFxax8TZcfO2mI0XD6ChPVPoPSjXyFp85fA0xm0kkQve1ieMTCy6E8/k3KvJQisi/zWSDpWPCKxDomMbTAYULbv1zCazfIbTnvkO/LbJHa0brQU50jgpDcmJQhKELxxXM6oOt2OIIwGDJKFmJWPDAQoXpYIcU2KwLggYDCIW8vV1+ve4fMoH68Kl+sBXBILwJ03F1D+l756T/IE0V5bL5IDLr5839nXI/LJTPT98yTEUEnKdzqFMHuOPcp7nvKdTvme5ZFM37J8g1FuNeD7koXT4S7fbJHjmiRGg88kT/M1xNt9JwLrw3Lc9XJc1+Zx6YNxylQJghKEcRpamu2dIjAeBOFOy9b3FIHRIkBfPH3nPOpHUkAfPwMB4XLC7BsIsy1AFk/Pc+6WuUvn+zz5MPi8r+fz51bfz5/3dA0+ZywO3+9uqhmsLvPhCQVPPvwvn7nLCISju13qI899bIPPnb2dg8/ppvC8T2uC5313LIE7H5IadxltMJrMg89JdDzP2X7P+yQljm73+2Qag88Nhs/fd/UPto0Y8aimNyYlCEoQvHFczqg6KUGYUd09bRpL1wJ3x1zgRF9sYAdPJVIupO7nhsEdNK0LRqNZYgK4oHK3L9+4+mVnz2/cz50D3/S74wckL5M8u273TxfHNTt0qcvAu+5dvtui4K6jJx8zXK6B/D1WhYFvaKlgwKO47QxuawPz4YIvZctzg7Rr8Hm/Q76h3UDKZtsGXH8sXywPbMNNGAHGwecGOHs6vXJcKEFQguCVA3MmVUoJwkzqbW2rIjB1EFCCoARh6ozWaVpTJQjTtGO1WYrAFEdACYIShCk+hKd+9ZUgTP0+1BYoAtMRASUIShCm47ieUm1SgjCluksrqwjMGASUIChBmDGD3VsbqgTBW3tG66UIzGwElCAoQZjZvwAvaP3Pgvswz+rCM40WVPYbYTQa4RyIgPaC6mkVFAFFYIYi8MOgPqzwceErTRYUOtyy2hOVVIthopDWcrwagT/3d+BxWz9+2WHCy11mJQhe3VtaOUVgZiAQZ3LhxZA+WAzAzgYL2l1KEKTnU5ISdAc3M34DXtHKIIMLvwnrQ5gRaOwHHLzG7dpkNAHX3D533d/kFjtf0bLXpAgoAorAWCEQagTMBuA3HSb8qtM0VtnecT5qQbhjqPTF6Y5AnLEffxfkRLblRnYw3Vuu7VMEFAFvRKDLBbzQbsJb3SZ8fjn2xNVUCcLEYa0lTQEEaMDzNxpguiYGgQI4UYvvR1PeCcSu3oGWwnMIyVyKhgsHReSGoi+UxuVtdC0FZ+QWusCkObCf2z8FWqxVVAQUAW9FoNsFuFUoJicpQZgc3LVUL0aAV7neGKRIxbiA+EypNe93b6/MR9y6x1B1+A9yT3xY1ioYzGa0ll6U62WDU+aLep4mRUARUASmKgJKEKZqz2m9xw2BoQhC7OpHUX/hU4SkL0FAwiy5t723rRG1J96BT2iMaMsHJmShpeS8EoRx6xnNWBFQBCYSASUIE4m2ljUlELiRIFCMJm7tLlGZayk8i7DZa2ANihCRmvL9v0X8ut2oOPgKopbcj8bcEwjLXgXfkGgUvv3clGivVlIRUAQUgaEQUIKg40IRuAGBGwmCf2wGqJrn7OlCQEIWXM4+dNQUS6wBFef4jBK3lN1tLjgFn+AosSrYz32k2CoCioAiMGURUIIwZbtOKz5eCAzlYhgsy2CEW0v22pMOnrPJevphvPpE81UEFIGJR0AJwsRjriV6OQI3EgS6DhhvYItMgqO7A132MnTay2Cy+sIWmQy/qCT09/W4n9eViSa9LSoJfpFJqDm+18tbq9VTBBQBRWBoBJQg6MhQBG7jYlCAFAFFQBGYiQgoQZiJva5tviUCt3QxKHaKgCKgCMwQBJQgzJCO1mbeOQJKEO4cK31TEVAEpi8CShCmb99qy0aJgBKEUQKnnykCisC0QkAJwrTqTm3MWCCgBGEsUNQ8FAFFYKojoARhqveg1n/MEVCCMOaQaoaKgCIwBRFQgjAFO02rPL4IkCD4+vqObyGauyKgCCgCUwCBrq7Jk7E3LFi02FVSUnoTTClJCXA6J0Pgcgr0mFZREVAEFAFFQBGY5ggoQZjmHazNUwQUAUVAEVAERoOAEoTRoKbfKAKKgCKgCCgC0xwBJQjTvIO1eYqAIqAIKAKKwGgQUIIwGtT0G0VAEVAEFAFFYJojoARhmnewNk8RUAQUAUVAERgNAkoQRoOafqMIKAKKgCKgCExzBJQgTPMO1uYpAoqAIqAIKAKjQUAJwmhQ02/GFQGjyYzlm7fBPzh0XMvxZO7o60XO4Y/QUl97U3nhsQmIS8uCYUJqAvT19uLKyUNDlpY2bykCgkMmqCa3Lqanqwu5Z44O+VLGwhWwBQROWD1bmxpQcvncTeUZTSZkL10Ls8UyIXVxuYDy/Itott88jiakAlqIIjDGCChBGGNANbu7R8Bi9cH6HU/ffUYjyKHg/CmU5V646YvMRSuRf+74CHK6u1djktNRU1o4ZCYbdj6Dg2/9/u4KGKOvMxYuR0HOySFzW7LxQZz59L0xKun22dzz6LM48Oa/3fSi2WJFUFgEGmurbp/JGL2RnL0ApVfPj1Fumo0iMLkIKEGYXPy19CEQUIIwBQjCguUoOO8lBGHXszjwhhIEnUwUgbFGQAnCWCOq+d01AmNBEKjn4KLN9w6TWhDuEKiB1zKUIAwJmFoQRjaO9G3vRkAJgnf3z4ys3e0IQlZqEmKjIm7Cxt7QhEsFxVg6LxuAC6cv5iI0OBCZyfHISE7EK3/6CP3DkIa7JQj+QcFISM9C7tkTg/WKTU5HYEgY6qsrEBWfhJZGO+xVFXA6+oYlL3frYiAxWrjuXnS2tCDv/KmbMAqLjkVIeCSKLnvM4AakZM2F1dcPteUlyJi/GCW5F9FSb4fD0Tfs+LsbgpA+dzH6+nrg4+uHlgY76irLcM+OJ3H0vTeQOnuhlMk6ELuE9EzkHPn0lr+De0ZpQYhLyUDAQJxLV0c7yguuDJbj42eT8vv7nYLFyvu24cTH7yIlax4KL56Dy9WvBGFGzk4zq9FKEGZWf0+J1t6OIESEhmD9cvdCEhcVjqq6Bvn/x85ehNVqwfL52Wjv6BRFyPioCLx38Bgam1vR3NY+bPtHQxAYBJc+dxGMRhOsvr7i766vqpAyyguuInvpSjTW1iAoLByRsYlorKtGVEIyPnnj9+jt6R6yLndDEPz8AzB3xTpUFObC6uOHyNh4nD9+EC5nP9LnLZbyGDzo4++Pptoa+XdZ3mWs2PIw6msqYbFYhcjU11QhIDgYR959E06nY8h63g1ByFq8AiRPjA3o7uqAn38gYpJScWDPq1i8fjOCwyNx+dRniIhNkIA/Ynv1zPBxIKMlCNEJKYhOTEZ3ZycsPj6ITU5D8eXz8PUPwJVTR5E+fwm62loRnZSKgKAQlOVfQV9vj+A7XFILwpSYYrSSd4iAEoQ7BEpfmzgEbkcQQgID8GdP7cTRsxeRnhSPwrJKLJk7C/++dx8CA/xx37rlaGvvRHNrO9ITY3H6Uh76nE6cvZSL3r6hF7zREAQPIovXbUZ/fz98bTZ0treju6Md+RdOY8mG+9DR2oz21haERcUiLCoGjLjnTrW+unJMCUJIRBTmLFuD1sYGtLU00oCC4IhIWdhyjn4KR28PZi9dDVoYzFYrero60VBThaqSQmx4ZLfUp6WxHhGx8QgOi0STvRZl+ZfRXF83pgTBYDQibc5CJGXORm15MRwOB/wDgxGVkCQEYcXmh8ATEt2d7fDx8xfyRRJRUXh1WMxGSxBCIqLBvqNFh9aWOUtX48zh/QiPjkNzfa3g0FhbjYwFS+Br80dnexvamhuRn3OzZcYDkhKEiZsntKTxR0AJwvhjrCWMEIE7IQhff2I79h05ibmZqbiUX4x1Sxfg9fc+RkNLG4L8bVi1aC6O51zCji0bcO5KHtdLnL2UN6YWBE9msxYuQ/750/JPv4BAzF6yCqcPfCgEobO9Ffk5p7Fs01YEhobJInPm0w/Q3dU5pgQBBoP7KKbBgORZc9DV0YG6ylLA5RJ3Bq0LdC9UFRdIuTStc9decOGsEITGuhoUXDiDReu3wD8wSAhCzpGP4egb2s0wWgtC8qy5mL10lZAU5u3q7xcXg4cgLN/8EExGE4qvXBBXiH9wiBCDosvnhq3L3RCElOx5Qpaa7DUIj4kXQsW+pLUnKTNbcKRLpKG2CnQ7WH18cObgPrUgjPA3ra9PTQSUIEzNfpvWtb4dQfD1seIrux9GQWklstKScDGvCDY/Xxw4cRYBfn5YPGcWMlMScLmwBIH+NhSXVwte567kjwtByJi3GHGpmWioqQTdDtUlhWKyJ0GgOTo6MQVmsxW2wEDYK8tRWZyPjraWsSUIACLjEpGYkQX/oBA4HQ7ZheeePSllmcwWZMxbJOZ77tC7OtpQU16CtqZGIQgVhfkIDAmV70hk7JVlKMm9JCb1odJoCQLzovWALo+Kwjzx5dPX7yEI81augy0gCBVF+TCZzbJzp5uhoihPyMRQ6W4IQtqcBejp7pJYCJKipRvvx6G9rwupmrdiPdpbmxAZlyRxJKwLiZYShGk9/WjjrkFACYIOB69D4HYEgRWel5mGe1cvgb2xGR8cPoGW1nY4+/uRGBuFmMhwZCQlIMDmJySho7Nr3AgCTeZZi1aIK4GBblYfXzTV18qFRonp2eJ64O40KCQc4TFu03XuuZPy7lDpbmIQiBtTYkY2ujs7YK8ql2BNXr5EgjB/1QZUFedLHVua6sV8z0uE5q1Yh9amRnc9QyMQGhktBCf37PExtyAQl6CwSMxdvgZXTh8bMN23Yv6qe3BgzytY+9AucZOQHJQyUDE0XOp09tA+IS9jSRCSs+YiNikNJosFfT09QqQiYuJx7sjHYvmh+6Hg4lmkzV0kWPrZAiSGQwmC100ZWqFxQkAJwjgBq9mOHoHbEYQnHt6MjOQE7N1/GE2tbdiyZjlS4qNRXmPH1aIyObVQUlmDHt5KWFiK5LiYcSEIDJ7bvOtZXDx5GOX5V2AymfHAU1+F0WjEwb2vIWP+EllM1m97XHbJdAHQ1cFFmovQWBIEs9mCzbufHTLPox/swbqHHsOpT96HvapM3Asbdzwpu/dP97yCZRsfwIG3X8PGnU/J7t1Tz6LLObh65tiYWhAyFywT8hQZm4DcnJOyIyc29Pvv/+PvsXDtRqkn67jhkS8g5+gn4vdva2oY9uTHaC0IjMdwE6rZ4ImGmvIilOZewsI1m1BVUoDenh4YTUaERsaIJejeXc8gL+cUCi+eHXZwawzC6H/3+qX3IaAEwfv6ZMbX6HYEwWIxo2+IYEOrxYLevj6xHHR198junclsNsvi4nA6h8V2tEGK3JkzyG2odKu/DVeRu7Eg3GrgcEc+3A6cNw7yuumRpLtxMZBI8figwWCECy4YDQbpK/bRtXWhu6b/Fn3mqe9oCYLne5bDCA7PiY1r79Dg/6eViPWgtWW4mAxPXkoQRjKK9F1vR0AJgrf30Ays3+0IwnhAMlqCMNZ1GS+CMNb1vBuCMNZ1uVuCMJb1UYIwlmhqXpONgBKEye4BLf8mBMxWH6x75IdQFwkAAAFXSURBVEkx1U9Uyjt7DBXXXJTjKTdt3hJUlxSgq711QqqSOGseyvMuDlnW6gd348S+PcNaLCakggOFzFq8GnlnPxuyyEUbHkDOoX3DXiY0lvXkWFmxZTuOvvv6zePIYkVkfDKqS4YPTh3LutiCQhAWFYeKgstjma3mpQhMGgJKECYNei14OARo1g2JjJFguolING831lXBOcSRPh7HC42MnTCy0tPdOawaIC/wYcCex3c+EdgMV4bcCdBUP+SfeYqCSpwToYBJtwRvqOzp7Li5LgaDxA9M5Dhqqqu6rRtiMvtNy1YERoKAEoSRoKXvKgKKgCKgCCgCMwQBJQgzpKO1mYqAIqAIKAKKwEgQUIIwErT0XUVAEVAEFAFFYIYgoARhhnS0NlMRUAQUAUVAERgJAkoQRoKWvqsIKAKKgCKgCMwQBJQgzJCO1mYqAoqAIqAIKAIjQeD/A1oWoZrD9fKkAAAAAElFTkSuQmCC;" vertex="1" parent="3p5SDK0Hz52g59HzeCmf-1">
          <mxGeometry x="375" y="440" width="520" height="235" as="geometry"/>
        </mxCell>
        <mxCell id="3p5SDK0Hz52g59HzeCmf-14" value="需要重启zabbix客户端" style="text;html=1;resizable=0;points=[];autosize=1;align=left;verticalAlign=top;spacingTop=-4;fillColor=#f8cecc;strokeColor=#b85450;" vertex="1" parent="3p5SDK0Hz52g59HzeCmf-1">
          <mxGeometry x="380" y="240.5" width="130" height="20" as="geometry"/>
        </mxCell>
      </root>
    </mxGraphModel>
  </diagram>
  <diagram id="-TkmguvXmsHc4GC_H_M4" name="第 3 页">
    <mxGraphModel dx="1395" dy="814" grid="1" gridSize="10" guides="1" tooltips="1" connect="1" arrows="1" fold="1" page="1" pageScale="1" pageWidth="827" pageHeight="1169" math="0" shadow="0">
      <root>
        <mxCell id="PQdeOGU68HbG0Ycup-Hj-0"/>
        <mxCell id="PQdeOGU68HbG0Ycup-Hj-1" parent="PQdeOGU68HbG0Ycup-Hj-0"/>
        <mxCell id="PQdeOGU68HbG0Ycup-Hj-2" value="zabbix-server" style="rounded=1;whiteSpace=wrap;html=1;fillColor=#fff2cc;strokeColor=#d6b656;" vertex="1" parent="PQdeOGU68HbG0Ycup-Hj-1">
          <mxGeometry x="70" y="180" width="120" height="60" as="geometry"/>
        </mxCell>
        <mxCell id="PQdeOGU68HbG0Ycup-Hj-3" value="agent" style="rounded=1;whiteSpace=wrap;html=1;fillColor=#f8cecc;strokeColor=#b85450;" vertex="1" parent="PQdeOGU68HbG0Ycup-Hj-1">
          <mxGeometry x="240" y="230" width="120" height="40" as="geometry"/>
        </mxCell>
        <mxCell id="PQdeOGU68HbG0Ycup-Hj-4" value="agent" style="rounded=1;whiteSpace=wrap;html=1;fillColor=#f8cecc;strokeColor=#b85450;" vertex="1" parent="PQdeOGU68HbG0Ycup-Hj-1">
          <mxGeometry x="240" y="160" width="120" height="40" as="geometry"/>
        </mxCell>
        <mxCell id="M8ZlhskVbgQbjJ_kllqe-1" value="nginx监控数据" style="rounded=1;whiteSpace=wrap;html=1;fillColor=#fff2cc;strokeColor=#d6b656;" vertex="1" parent="PQdeOGU68HbG0Ycup-Hj-1">
          <mxGeometry x="400" y="120" width="120" height="30" as="geometry"/>
        </mxCell>
        <mxCell id="M8ZlhskVbgQbjJ_kllqe-2" value="nginx status" style="text;html=1;strokeColor=none;fillColor=none;align=center;verticalAlign=middle;whiteSpace=wrap;rounded=0;" vertex="1" parent="PQdeOGU68HbG0Ycup-Hj-1">
          <mxGeometry x="568" y="16" width="120" height="10" as="geometry"/>
        </mxCell>
        <mxCell id="M8ZlhskVbgQbjJ_kllqe-3" value="curl&amp;nbsp; 访问&amp;nbsp; nginx配置_localtion&amp;nbsp; &amp;nbsp;" style="text;html=1;resizable=0;points=[];autosize=1;align=left;verticalAlign=top;spacingTop=-4;" vertex="1" parent="PQdeOGU68HbG0Ycup-Hj-1">
          <mxGeometry x="568" y="51" width="190" height="20" as="geometry"/>
        </mxCell>
        <mxCell id="M8ZlhskVbgQbjJ_kllqe-4" value="自定义监控&amp;nbsp; &amp;nbsp;通过脚本获取我们想要监控数据" style="text;html=1;resizable=0;points=[];autosize=1;align=left;verticalAlign=top;spacingTop=-4;" vertex="1" parent="PQdeOGU68HbG0Ycup-Hj-1">
          <mxGeometry x="577" y="81" width="250" height="20" as="geometry"/>
        </mxCell>
        <mxCell id="M8ZlhskVbgQbjJ_kllqe-5" value="面试可能问题" style="text;html=1;resizable=0;points=[];autosize=1;align=left;verticalAlign=top;spacingTop=-4;" vertex="1" parent="PQdeOGU68HbG0Ycup-Hj-1">
          <mxGeometry x="567" y="120" width="90" height="20" as="geometry"/>
        </mxCell>
        <mxCell id="M8ZlhskVbgQbjJ_kllqe-6" value="&lt;br/&gt;&lt;br/&gt;&lt;div&gt;active connections – 活跃的连接数量&lt;br/&gt;&lt;/div&gt;&lt;div&gt;server accepts handled requests — 总共处理了11989个连接 , 成功创建11989次握手, 总共处理了11991个请求&lt;br/&gt;&lt;/div&gt;&lt;div&gt;reading — 读取客户端的连接数.&lt;br/&gt;&lt;/div&gt;&lt;div&gt;writing — 响应数据到客户端的数量&lt;br/&gt;&lt;/div&gt;&lt;div&gt;waiting — 开启 keep-alive 的情况下,这个值等于 active – (reading+writing), 意思就是 Nginx 已经处理完正在等候下一次请求指令的驻留连接.&amp;nbsp;&lt;/div&gt;" style="text;html=1;resizable=0;points=[];autosize=1;align=left;verticalAlign=top;spacingTop=-4;fillColor=#f8cecc;strokeColor=#b85450;" vertex="1" parent="PQdeOGU68HbG0Ycup-Hj-1">
          <mxGeometry x="560" y="150" width="760" height="100" as="geometry"/>
        </mxCell>
        <mxCell id="M8ZlhskVbgQbjJ_kllqe-7" value="业务级别监控&amp;nbsp; &amp;nbsp;&lt;br&gt;uwsgi&amp;nbsp;&amp;nbsp;" style="text;html=1;resizable=0;points=[];autosize=1;align=left;verticalAlign=top;spacingTop=-4;fillColor=#fff2cc;strokeColor=#d6b656;" vertex="1" parent="PQdeOGU68HbG0Ycup-Hj-1">
          <mxGeometry x="420" y="265" width="100" height="30" as="geometry"/>
        </mxCell>
        <mxCell id="M8ZlhskVbgQbjJ_kllqe-9" value="API&amp;nbsp;" style="text;html=1;resizable=0;points=[];autosize=1;align=left;verticalAlign=top;spacingTop=-4;" vertex="1" parent="PQdeOGU68HbG0Ycup-Hj-1">
          <mxGeometry x="440" y="300" width="40" height="20" as="geometry"/>
        </mxCell>
        <mxCell id="M8ZlhskVbgQbjJ_kllqe-10" value="python或者shell&amp;nbsp; 通过API方式处理&amp;nbsp; json 接口数据&amp;nbsp; &amp;nbsp; 返回监控指标和values" style="text;html=1;resizable=0;points=[];autosize=1;align=left;verticalAlign=top;spacingTop=-4;" vertex="1" parent="PQdeOGU68HbG0Ycup-Hj-1">
          <mxGeometry x="560" y="280" width="410" height="20" as="geometry"/>
        </mxCell>
        <mxCell id="M8ZlhskVbgQbjJ_kllqe-11" value="mysql" style="text;html=1;resizable=0;points=[];autosize=1;align=left;verticalAlign=top;spacingTop=-4;fillColor=#ffe6cc;strokeColor=#d79b00;" vertex="1" parent="PQdeOGU68HbG0Ycup-Hj-1">
          <mxGeometry x="420" y="360" width="50" height="20" as="geometry"/>
        </mxCell>
        <mxCell id="M8ZlhskVbgQbjJ_kllqe-12" value="zabbix 官网自带模板" style="text;html=1;resizable=0;points=[];autosize=1;align=left;verticalAlign=top;spacingTop=-4;" vertex="1" parent="PQdeOGU68HbG0Ycup-Hj-1">
          <mxGeometry x="558" y="380" width="130" height="20" as="geometry"/>
        </mxCell>
        <mxCell id="M8ZlhskVbgQbjJ_kllqe-13" value="获取mysql status 监控项 相关数据" style="text;html=1;resizable=0;points=[];autosize=1;align=left;verticalAlign=top;spacingTop=-4;fillColor=#f8cecc;strokeColor=#b85450;" vertex="1" parent="PQdeOGU68HbG0Ycup-Hj-1">
          <mxGeometry x="550" y="350" width="200" height="20" as="geometry"/>
        </mxCell>
        <mxCell id="M8ZlhskVbgQbjJ_kllqe-14" value="Redis" style="text;html=1;resizable=0;points=[];autosize=1;align=left;verticalAlign=top;spacingTop=-4;fillColor=#fff2cc;strokeColor=#d6b656;" vertex="1" parent="PQdeOGU68HbG0Ycup-Hj-1">
          <mxGeometry x="421" y="434" width="50" height="20" as="geometry"/>
        </mxCell>
        <mxCell id="M8ZlhskVbgQbjJ_kllqe-15" value="如何计算缓存命中率" style="text;html=1;resizable=0;points=[];autosize=1;align=left;verticalAlign=top;spacingTop=-4;fillColor=#fff2cc;strokeColor=#d6b656;" vertex="1" parent="PQdeOGU68HbG0Ycup-Hj-1">
          <mxGeometry x="552" y="424" width="120" height="20" as="geometry"/>
        </mxCell>
        <mxCell id="M8ZlhskVbgQbjJ_kllqe-16" value="&lt;b&gt;&lt;font style=&quot;font-size: 14px&quot;&gt;&lt;span class=&quot;hljs-attr&quot; style=&quot;line-height: 22.4px ; box-sizing: content-box ; font-family: monospace ; letter-spacing: -0.3px ; white-space: pre-wrap&quot;&gt;rejected_connections&lt;/span&gt;&lt;span class=&quot;hljs-attr&quot; style=&quot;color: rgb(156 , 220 , 254) ; line-height: 22.4px ; box-sizing: content-box ; font-family: monospace ; letter-spacing: -0.3px ; white-space: pre-wrap&quot;&gt;:&lt;/span&gt;&lt;span class=&quot;hljs-comment&quot; style=&quot;color: rgb(87 , 166 , 74) ; font-style: italic ; line-height: 22.4px ; box-sizing: content-box ; font-family: monospace ; letter-spacing: -0.3px ; white-space: pre-wrap&quot;&gt;##因为超过最大连接数被拒接的请求数量&lt;/span&gt;&lt;/font&gt;&lt;/b&gt;" style="text;html=1;resizable=0;points=[];autosize=1;align=left;verticalAlign=top;spacingTop=-4;fillColor=#fff2cc;strokeColor=#d6b656;" vertex="1" parent="PQdeOGU68HbG0Ycup-Hj-1">
          <mxGeometry x="558" y="454" width="430" height="20" as="geometry"/>
        </mxCell>
        <mxCell id="M8ZlhskVbgQbjJ_kllqe-18" value="其他监控" style="text;html=1;resizable=0;points=[];autosize=1;align=left;verticalAlign=top;spacingTop=-4;fillColor=#f8cecc;strokeColor=#b85450;" vertex="1" parent="PQdeOGU68HbG0Ycup-Hj-1">
          <mxGeometry x="424" y="534" width="60" height="20" as="geometry"/>
        </mxCell>
        <mxCell id="M8ZlhskVbgQbjJ_kllqe-19" value="报警方式" style="text;html=1;resizable=0;points=[];autosize=1;align=left;verticalAlign=top;spacingTop=-4;fillColor=#f8cecc;strokeColor=#b85450;" vertex="1" parent="PQdeOGU68HbG0Ycup-Hj-1">
          <mxGeometry x="260" y="650" width="60" height="20" as="geometry"/>
        </mxCell>
        <mxCell id="M8ZlhskVbgQbjJ_kllqe-20" value="邮件" style="text;html=1;resizable=0;points=[];autosize=1;align=left;verticalAlign=top;spacingTop=-4;fillColor=#f8cecc;strokeColor=#b85450;" vertex="1" parent="PQdeOGU68HbG0Ycup-Hj-1">
          <mxGeometry x="360" y="600" width="40" height="20" as="geometry"/>
        </mxCell>
        <mxCell id="M8ZlhskVbgQbjJ_kllqe-21" value="钉钉、或者微信" style="text;html=1;resizable=0;points=[];autosize=1;align=left;verticalAlign=top;spacingTop=-4;fillColor=#fff2cc;strokeColor=#d6b656;" vertex="1" parent="PQdeOGU68HbG0Ycup-Hj-1">
          <mxGeometry x="360" y="640" width="100" height="20" as="geometry"/>
        </mxCell>
        <mxCell id="M8ZlhskVbgQbjJ_kllqe-22" value="webhooks等" style="text;html=1;resizable=0;points=[];autosize=1;align=left;verticalAlign=top;spacingTop=-4;fillColor=#dae8fc;strokeColor=#6c8ebf;" vertex="1" parent="PQdeOGU68HbG0Ycup-Hj-1">
          <mxGeometry x="360" y="670" width="80" height="20" as="geometry"/>
        </mxCell>
        <mxCell id="M8ZlhskVbgQbjJ_kllqe-23" value="怎么安装和推送&amp;nbsp; zabbix-agent？" style="text;html=1;resizable=0;points=[];autosize=1;align=left;verticalAlign=top;spacingTop=-4;fillColor=#f8cecc;strokeColor=#b85450;" vertex="1" parent="PQdeOGU68HbG0Ycup-Hj-1">
          <mxGeometry x="110" y="870" width="190" height="20" as="geometry"/>
        </mxCell>
        <mxCell id="M8ZlhskVbgQbjJ_kllqe-24" value="centos sendmail" style="text;html=1;resizable=0;points=[];autosize=1;align=left;verticalAlign=top;spacingTop=-4;" vertex="1" parent="PQdeOGU68HbG0Ycup-Hj-1">
          <mxGeometry x="608" y="587" width="100" height="20" as="geometry"/>
        </mxCell>
        <mxCell id="M8ZlhskVbgQbjJ_kllqe-25" value="短信" style="text;html=1;resizable=0;points=[];autosize=1;align=left;verticalAlign=top;spacingTop=-4;fillColor=#f8cecc;strokeColor=#b85450;" vertex="1" parent="PQdeOGU68HbG0Ycup-Hj-1">
          <mxGeometry x="360" y="710" width="40" height="20" as="geometry"/>
        </mxCell>
        <mxCell id="M8ZlhskVbgQbjJ_kllqe-26" value="报警策略" style="text;html=1;resizable=0;points=[];autosize=1;align=left;verticalAlign=top;spacingTop=-4;fillColor=#fff2cc;strokeColor=#d6b656;" vertex="1" parent="PQdeOGU68HbG0Ycup-Hj-1">
          <mxGeometry x="260" y="750" width="60" height="20" as="geometry"/>
        </mxCell>
        <mxCell id="M8ZlhskVbgQbjJ_kllqe-27" value="报警升级" style="text;html=1;resizable=0;points=[];autosize=1;align=left;verticalAlign=top;spacingTop=-4;fillColor=#ffe6cc;strokeColor=#d79b00;" vertex="1" parent="PQdeOGU68HbG0Ycup-Hj-1">
          <mxGeometry x="361" y="760" width="60" height="20" as="geometry"/>
        </mxCell>
        <mxCell id="M8ZlhskVbgQbjJ_kllqe-28" value="分业务" style="text;html=1;resizable=0;points=[];autosize=1;align=left;verticalAlign=top;spacingTop=-4;fillColor=#f8cecc;strokeColor=#b85450;" vertex="1" parent="PQdeOGU68HbG0Ycup-Hj-1">
          <mxGeometry x="460" y="747" width="50" height="20" as="geometry"/>
        </mxCell>
        <mxCell id="M8ZlhskVbgQbjJ_kllqe-29" value="分级别" style="text;html=1;resizable=0;points=[];autosize=1;align=left;verticalAlign=top;spacingTop=-4;" vertex="1" parent="PQdeOGU68HbG0Ycup-Hj-1">
          <mxGeometry x="459" y="810" width="50" height="20" as="geometry"/>
        </mxCell>
        <mxCell id="M8ZlhskVbgQbjJ_kllqe-30" value="开发人员&lt;br&gt;产品&lt;br&gt;" style="text;html=1;resizable=0;points=[];autosize=1;align=left;verticalAlign=top;spacingTop=-4;fillColor=#f8cecc;strokeColor=#b85450;" vertex="1" parent="PQdeOGU68HbG0Ycup-Hj-1">
          <mxGeometry x="552" y="720" width="60" height="30" as="geometry"/>
        </mxCell>
        <mxCell id="M8ZlhskVbgQbjJ_kllqe-31" value="业务监控&amp;nbsp; 突然 UV PV 陡坡式下降" style="text;html=1;resizable=0;points=[];autosize=1;align=left;verticalAlign=top;spacingTop=-4;fillColor=#f8cecc;strokeColor=#b85450;" vertex="1" parent="PQdeOGU68HbG0Ycup-Hj-1">
          <mxGeometry x="630" y="720" width="200" height="20" as="geometry"/>
        </mxCell>
        <mxCell id="M8ZlhskVbgQbjJ_kllqe-32" value="报警阀值" style="text;html=1;resizable=0;points=[];autosize=1;align=left;verticalAlign=top;spacingTop=-4;fillColor=#f8cecc;strokeColor=#b85450;" vertex="1" parent="PQdeOGU68HbG0Ycup-Hj-1">
          <mxGeometry x="870" y="720" width="60" height="20" as="geometry"/>
        </mxCell>
        <mxCell id="M8ZlhskVbgQbjJ_kllqe-33" value="运维" style="text;html=1;resizable=0;points=[];autosize=1;align=left;verticalAlign=top;spacingTop=-4;fillColor=#f8cecc;strokeColor=#b85450;" vertex="1" parent="PQdeOGU68HbG0Ycup-Hj-1">
          <mxGeometry x="567" y="770" width="40" height="20" as="geometry"/>
        </mxCell>
        <mxCell id="M8ZlhskVbgQbjJ_kllqe-34" value="服务器基本信息" style="text;html=1;resizable=0;points=[];autosize=1;align=left;verticalAlign=top;spacingTop=-4;" vertex="1" parent="PQdeOGU68HbG0Ycup-Hj-1">
          <mxGeometry x="446" y="778.5" width="100" height="20" as="geometry"/>
        </mxCell>
        <mxCell id="M8ZlhskVbgQbjJ_kllqe-36" value="一线运维" style="text;html=1;resizable=0;points=[];autosize=1;align=left;verticalAlign=top;spacingTop=-4;fillColor=#fff2cc;strokeColor=#d6b656;" vertex="1" parent="PQdeOGU68HbG0Ycup-Hj-1">
          <mxGeometry x="557" y="812" width="60" height="20" as="geometry"/>
        </mxCell>
        <mxCell id="M8ZlhskVbgQbjJ_kllqe-37" value="二线运维" style="text;html=1;resizable=0;points=[];autosize=1;align=left;verticalAlign=top;spacingTop=-4;fillColor=#fff2cc;strokeColor=#d6b656;" vertex="1" parent="PQdeOGU68HbG0Ycup-Hj-1">
          <mxGeometry x="688" y="812" width="60" height="20" as="geometry"/>
        </mxCell>
        <mxCell id="M8ZlhskVbgQbjJ_kllqe-38" value="运维经理" style="text;html=1;resizable=0;points=[];autosize=1;align=left;verticalAlign=top;spacingTop=-4;fillColor=#f8cecc;strokeColor=#b85450;" vertex="1" parent="PQdeOGU68HbG0Ycup-Hj-1">
          <mxGeometry x="797" y="808.5" width="60" height="20" as="geometry"/>
        </mxCell>
        <mxCell id="M8ZlhskVbgQbjJ_kllqe-40" value="报警升级" style="text;html=1;resizable=0;points=[];autosize=1;align=left;verticalAlign=top;spacingTop=-4;fillColor=#f8cecc;strokeColor=#b85450;" vertex="1" parent="PQdeOGU68HbG0Ycup-Hj-1">
          <mxGeometry x="628" y="850" width="60" height="20" as="geometry"/>
        </mxCell>
        <mxCell id="M8ZlhskVbgQbjJ_kllqe-43" value="高级" style="text;html=1;resizable=0;points=[];autosize=1;align=left;verticalAlign=top;spacingTop=-4;" vertex="1" parent="PQdeOGU68HbG0Ycup-Hj-1">
          <mxGeometry x="700" y="788.5" width="40" height="20" as="geometry"/>
        </mxCell>
        <mxCell id="M8ZlhskVbgQbjJ_kllqe-45" value="报警升级" style="text;html=1;resizable=0;points=[];autosize=1;align=left;verticalAlign=top;spacingTop=-4;fillColor=#e1d5e7;strokeColor=#9673a6;" vertex="1" parent="PQdeOGU68HbG0Ycup-Hj-1">
          <mxGeometry x="760" y="847" width="60" height="20" as="geometry"/>
        </mxCell>
        <mxCell id="M8ZlhskVbgQbjJ_kllqe-46" value="监控粒度" style="text;html=1;resizable=0;points=[];autosize=1;align=left;verticalAlign=top;spacingTop=-4;" vertex="1" parent="PQdeOGU68HbG0Ycup-Hj-1">
          <mxGeometry x="460" y="717" width="60" height="20" as="geometry"/>
        </mxCell>
        <mxCell id="M8ZlhskVbgQbjJ_kllqe-47" value="mailx" style="text;html=1;resizable=0;points=[];autosize=1;align=left;verticalAlign=top;spacingTop=-4;" vertex="1" parent="PQdeOGU68HbG0Ycup-Hj-1">
          <mxGeometry x="562" y="587" width="40" height="20" as="geometry"/>
        </mxCell>
        <mxCell id="M8ZlhskVbgQbjJ_kllqe-49" value="使用本机发邮件" style="text;html=1;resizable=0;points=[];autosize=1;align=left;verticalAlign=top;spacingTop=-4;fillColor=#fff2cc;strokeColor=#d6b656;" vertex="1" parent="PQdeOGU68HbG0Ycup-Hj-1">
          <mxGeometry x="448" y="583" width="100" height="20" as="geometry"/>
        </mxCell>
        <mxCell id="M8ZlhskVbgQbjJ_kllqe-50" value="使用外部邮箱（邮件服务器）、使用163、qq、126等发送" style="text;html=1;resizable=0;points=[];autosize=1;align=left;verticalAlign=top;spacingTop=-4;fillColor=#fff2cc;strokeColor=#d6b656;" vertex="1" parent="PQdeOGU68HbG0Ycup-Hj-1">
          <mxGeometry x="451" y="611.5" width="320" height="20" as="geometry"/>
        </mxCell>
      </root>
    </mxGraphModel>
  </diagram>
</mxfile>
